<?xml version="1.0" encoding="utf-8"?>
<!-- Uploaded to: SVG Repo, www.svgrepo.com, Generator: SVG Repo Mixer Tools -->
<svg width="800px" height="800px" viewBox="0 0 78.436 78.436" xmlns="http://www.w3.org/2000/svg">
  <g id="bowling_ball" data-name="bowling ball" transform="translate(-263.587 -999.837)">
    <path id="Path_92" data-name="Path 92" d="M342.022,1039.058a39.217,39.217,0,1,1-39.22-39.221A39.213,39.213,0,0,1,342.022,1039.058Z" fill="#27b7ff"/>
    <path id="Path_93" data-name="Path 93" d="M309.732,1036.905a6.095,6.095,0,1,1,6.1-6.1,6.108,6.108,0,0,1-6.1,6.1Z" fill="#576d78"/>
    <path id="Path_94" data-name="Path 94" d="M315.225,1031.392a5.495,5.495,0,1,1-5.493-5.493A5.5,5.5,0,0,1,315.225,1031.392Z" fill="#163844"/>
    <path id="Path_95" data-name="Path 95" d="M311.978,1018.183a4.786,4.786,0,1,1,4.788-4.787,4.8,4.8,0,0,1-4.788,4.787Z" fill="#576d78"/>
    <path id="Path_96" data-name="Path 96" d="M316.162,1013.976a4.183,4.183,0,1,1-4.184-4.184A4.183,4.183,0,0,1,316.162,1013.976Z" fill="#163844"/>
    <path id="Path_97" data-name="Path 97" d="M326.206,1026.987a4.788,4.788,0,1,1,4.792-4.8,4.8,4.8,0,0,1-4.792,4.8Z" fill="#576d78"/>
    <path id="Path_98" data-name="Path 98" d="M330.394,1022.776a4.185,4.185,0,1,1-4.183-4.183A4.183,4.183,0,0,1,330.394,1022.776Z" fill="#163844"/>
  </g>
</svg>