<svg xmlns="http://www.w3.org/2000/svg" xmlns:xlink="http://www.w3.org/1999/xlink" viewBox="0 0 500 500"><defs><clipPath id="freepik--clip-path--inject-261"><circle cx="103.11" cy="363.82" r="26.75" style="fill:none;stroke:#263238;stroke-miterlimit:10"></circle></clipPath><clipPath id="freepik--clip-path-2--inject-261"><path d="M200.91,251.64s-34.37,39.79-39,45.09-8.11,9.35-8.11,9.35,3.12,19.33,29.3,22.75l23.77-28.56-9.74,28.88s-1.56,3.43,14,8.41S232,340.37,232,340.37s13.48-33.56,19.09-40.41,15.28-13.72,15.59-21.82-3.12-16.52-3.12-16.52-3.74-8.11-26.18-12.47S200.91,251.64,200.91,251.64Z" style="fill:#A1D336;stroke:#263238;stroke-linecap:round;stroke-linejoin:round"></path></clipPath></defs><g id="freepik--background-simple--inject-261"><path d="M394.12,94.32s-46.81-41.16-110.2-26-91.63,68.28-129,104.13c-19.56,18.78-47.66,24.94-70.6,39.1C11,256.85,17.68,364.92,71.41,407.57c46.51,36.91,106.09,42.77,184.75,19.66S391,390.58,441.91,318,451.6,150,394.12,94.32Z" style="fill:#A1D336"></path><path d="M394.12,94.32s-46.81-41.16-110.2-26-91.63,68.28-129,104.13c-19.56,18.78-47.66,24.94-70.6,39.1C11,256.85,17.68,364.92,71.41,407.57c46.51,36.91,106.09,42.77,184.75,19.66S391,390.58,441.91,318,451.6,150,394.12,94.32Z" style="fill:#fff;opacity:0.8"></path></g><g id="freepik--character-2--inject-261"><ellipse cx="346.5" cy="427.5" rx="104.5" ry="10.5" style="fill:#A1D336"></ellipse><ellipse cx="346.5" cy="427.5" rx="104.5" ry="10.5" style="fill:#fff;opacity:0.5"></ellipse><path d="M384.6,197.41s-3.74,9.35-3.74,12.78-20.57-3.74-20.57-3.74,6.86-2.18,8.11-7.17.62-4.37,5.29-6.55S384.6,197.41,384.6,197.41Z" style="fill:#fff;stroke:#263238;stroke-linecap:round;stroke-linejoin:round"></path><path d="M355.62,173.72s-4.06,6.86-3.74,10,1.55.31.31,3.12-5,6.86-4.05,7.79a17.72,17.72,0,0,0,3.42,2.18s-.31,8.73.94,10,10.29.31,14.65-1.87,5-7.79,5-7.79,2.49-.32,5.61-3.43,5.61-14.34,1.87-18.7S368.4,168.73,364,169,355.62,173.72,355.62,173.72Z" style="fill:#fff;stroke:#263238;stroke-linecap:round;stroke-linejoin:round"></path><path d="M356.36,187.59c0,1.14-.38,2.07-.86,2.07s-.86-.93-.86-2.07.38-2.08.86-2.08S356.36,186.44,356.36,187.59Z" style="fill:#263238"></path><path d="M353.94,184.82a6.79,6.79,0,0,1,4.5-1.73" style="fill:none;stroke:#263238;stroke-linecap:round;stroke-linejoin:round"></path><path d="M360.29,164.06s-1.25-6.55-4.67-4.37-8.11,7.48-5.3,12.78S363.1,175,363.1,175s-2.5,4.67-.31,5.61,4,1.55,4,1.55-2.81,4.06,1.56,4.06,2.49-3.12,5.29-4.06,6.24,4.68,4.68,8.42-3.43,4.68-3.43,4.68a14.51,14.51,0,0,0,6.24,3.74c4.05,1.24,5.29-1.25,8.72-7.48s5.61-17.46,3.74-23.38-11.84-5-14.33-5a28.77,28.77,0,0,0-5.3.62s.93-4.67-3.12-4.67S360.29,164.06,360.29,164.06Z" style="fill:#263238;stroke:#263238;stroke-linecap:round;stroke-linejoin:round"></path><path d="M305.43,228.89s-3.11-5.61-5.3-6.55-5.29,2.5-5.29,2.5-4.06-.94-4.68.31l-1.56,3.12s-.62-.63-.93,2.18c-.14,1.24-1.07,3.35-.61,4.57.51,1.38,2.12,1.58,3.38,2.22,3.59,1.84,6.57,6.14,10.3,7.23s7.17-1.32,9.68-3.74C318.84,232.63,308.55,228.58,305.43,228.89Z" style="fill:#fff;stroke:#263238;stroke-linecap:round;stroke-linejoin:round"></path><path d="M303.87,228.89a34.32,34.32,0,0,0-9.9,6.32" style="fill:none;stroke:#263238;stroke-linecap:round;stroke-linejoin:round"></path><path d="M412.66,233.56S427.31,218,432,210.5s9.35-18.39,9.35-22.13,1.25-7.48,3.43-9.35,7.17-7.75,7.17-4.68c0,1.87-.31,1.87-1.25,3.12s-3.74,5.92-3.74,5.92,10.29-8.41,11.22-9,3.43-2.49,4.06-1.56-1.25,3.74-1.25,3.74l-4.05,4.37s6.85-2.81,8.1-2.81,1.25,1.56.31,2.5-7.48,5.3-7.48,5.3l5.3-1.56s0,.31.62,1.24-2.49,5.3-3.74,6.24-12.15,8.41-12.15,8.41-9.66,17.77-11.53,25.25-6.86,16.52-8.42,19.64-4.68,5-7.17,5.92S412.66,238.55,412.66,233.56Z" style="fill:#fff;stroke:#263238;stroke-linecap:round;stroke-linejoin:round"></path><path d="M463.77,185.56a20.51,20.51,0,0,1-5.29,3.74" style="fill:none;stroke:#263238;stroke-linecap:round;stroke-linejoin:round"></path><line x1="456.92" y1="180.89" x2="455.05" y2="181.82" style="fill:none;stroke:#263238;stroke-linecap:round;stroke-linejoin:round"></line><path d="M317.9,275.33l-9,7.79s-26.49-3.74-42.08-.93-23.06,6.23-24.31,9.66-12.47,20.89-24,34S196.65,346.4,193.85,347s-7.8-3.43-13.72-8.1-10-3.74-9,1.24,4.37,8.42,7.17,12.47,5.3,13.09,7.79,14.34,6.86,1.87,8.73-1.56,10.91-11.53,22.75-19.63S240,333.93,249,327.7s12.46-21.51,12.46-21.51,27.74,7.17,36.47,8.73,14.65,2.49,14.65,2.49h2.81s3.11,17.77,6.85,32.73,8.42,28.36,11.54,29.92,61.4,20.89,66.39,22.76,19.32,7.48,19.32,7.48,9.35,6.85,11.85,11.22,4.05,10,6.23,10.6,2.5-8.73.31-19.33-.62-15.9-3.11-19.64-12.16,0-15.59.32-14.65-1.88-24.31-7.8S381.8,373.2,371.2,367.59A48.67,48.67,0,0,0,350.63,362s1.87-17.45,1.87-22.75V317.1a145.53,145.53,0,0,0,2.18-15.9c.31-6.23-1.56-15.58-1.56-15.58Z" style="fill:#fff;stroke:#263238;stroke-linecap:round;stroke-linejoin:round"></path><path d="M437.9,412.79c-2.18-10.6-.62-15.9-3.11-19.64s-12.16,0-15.59.32-14.65-1.88-24.31-7.8S381.8,373.2,371.2,367.59a49.5,49.5,0,0,0-13.64-4.78c-3.33,2.76-11,10.51-9.64,22.28,18.46,6.32,48.74,16.4,52.27,17.73,5,1.87,19.32,7.48,19.32,7.48s9.35,6.85,11.85,11.22,4.05,10,6.23,10.6S440.09,423.39,437.9,412.79Z" style="fill:#fff;stroke:#263238;stroke-linecap:round;stroke-linejoin:round"></path><path d="M418.27,409.05a4.53,4.53,0,0,0,0,.74l1.29.51s9.35,6.85,11.85,11.22,4.05,10,6.23,10.6,2.5-8.73.31-19.33-.62-15.9-3.11-19.64c-2.08-3.12-9.14-1-13.42-.08l4.07,11.62S418.89,404.69,418.27,409.05Z" style="fill:#263238;stroke:#263238;stroke-linecap:round;stroke-linejoin:round"></path><path d="M249,327.7c5.28-3.65,8.64-10.37,10.53-15.34-11.48-.87-17.44-10.33-19.83-15.43a229.73,229.73,0,0,1-21.25,28.9c-11.53,13.09-21.82,20.57-24.62,21.19s-7.8-3.43-13.72-8.1-10-3.74-9,1.24,4.37,8.42,7.17,12.47,5.3,13.09,7.79,14.34,6.86,1.87,8.73-1.56,10.91-11.53,22.75-19.63S240,333.93,249,327.7Z" style="fill:#fff;stroke:#263238;stroke-linecap:round;stroke-linejoin:round"></path><path d="M180.13,338.92c-5.92-4.68-10-3.74-9,1.24s4.37,8.42,7.17,12.47,5.3,13.09,7.79,14.34,6.86,1.87,8.73-1.56a23,23,0,0,1,3.65-4.37l-.84-.3c-5-1.87-7.8-8.73-7.8-8.73l4.06-5C191,347.65,186.05,343.59,180.13,338.92Z" style="fill:#263238;stroke:#263238;stroke-linecap:round;stroke-linejoin:round"></path><path d="M351.64,351.76c.44-4.81.86-10,.86-12.53V317.1a145.53,145.53,0,0,0,2.18-15.9c.31-6.23-1.56-15.58-1.56-15.58L317.9,275.33l-9,7.79s-26.49-3.74-42.08-.93c-.75.13-1.46.27-2.17.41,2.17,5.11,5.12,14.72,2.45,25,8.57,2.17,24.63,6.18,30.89,7.3,8.73,1.56,14.65,2.49,14.65,2.49h2.81s3.11,17.77,6.85,32.73c.73,2.89,1.49,5.72,2.26,8.42C330.81,355.57,341.63,351.32,351.64,351.76Z" style="fill:#263238;stroke:#263238;stroke-linecap:round;stroke-linejoin:round"></path><path d="M324.45,341.81l-.26-1A8.6,8.6,0,0,1,324,338a18.53,18.53,0,0,1,.66-3.39c0-.05.15-.52.41-1.43s.46-1.54.6-1.89a7,7,0,0,0-.12-3.73c-.38-1.51-.89-2.18-1.53-2s-.75.64-.67,1.51a11.21,11.21,0,0,0,.26,1.36l.56,2.23-2.55.64-.27-1.08a10.81,10.81,0,0,1-.5-4.56,2.87,2.87,0,0,1,1.32-1.89,5.11,5.11,0,0,1,1.4-.55,3.17,3.17,0,0,1,1.62,0,2.89,2.89,0,0,1,1.33.79,7,7,0,0,1,1.65,3.26,8.27,8.27,0,0,1,.11,3.94c-.28,1.21-.58,2.3-.91,3.27a13.83,13.83,0,0,0-.86,4.66l4-1,.53,2.09Z" style="fill:#fff"></path><path d="M340.1,336.74a4.41,4.41,0,0,1-6.05,1.53,6.29,6.29,0,0,1-1.88-3.45l-2.11-8.39a5.57,5.57,0,0,1,.07-3.72,3.82,3.82,0,0,1,2.72-1.92,3.76,3.76,0,0,1,3.31.4,5.5,5.5,0,0,1,1.84,3.23l2.11,8.39A6.27,6.27,0,0,1,340.1,336.74Zm-3.31-.28a1.14,1.14,0,0,0,.85-.74,4.37,4.37,0,0,0-.19-2.18L335.29,325c-.33-1.3-.82-1.95-1.45-2a3.32,3.32,0,0,0-.59.11,1.08,1.08,0,0,0-.66.58,3.06,3.06,0,0,0,.1,1.92l2.16,8.55a4.49,4.49,0,0,0,.86,2A1.11,1.11,0,0,0,336.79,336.46Z" style="fill:#fff"></path><path d="M418.89,234.5s-2.49-.62-16.21-11.84-19.32-15-29.61-18.08-24,.31-31.17,3.43-38,20.88-38,20.88-2.8,4.67-.31,8.73a25.4,25.4,0,0,0,5.3,6.23l21.2-3.12-15.59,36.78,38.34,11.85s18.08-21.82,24-26.81,18.08-17.14,18.08-17.14L419.2,256S430.42,247.28,418.89,234.5Z" style="fill:#A1D336;stroke:#263238;stroke-linecap:round;stroke-linejoin:round"></path><path d="M346.73,256l1.54-2.09a29.83,29.83,0,0,1,4.63-5,56.72,56.72,0,0,1,6.41-4.7c.09-.06,1-.65,2.83-1.8s3.06-1.91,3.79-2.3a24,24,0,0,0,6.29-6.37q3.36-4.56,2-5.51-1.08-.8-3.19,1.55c-.61.68-1.31,1.56-2.11,2.64l-3.29,4.5-3.46-2.54,1.59-2.18q4.85-6.59,7.37-8.29t4.46-1.28a5.79,5.79,0,0,1,2.22,1.07,3.89,3.89,0,0,1,1.51,2.28,6.61,6.61,0,0,1-.13,3.19,24.08,24.08,0,0,1-4.07,7.75,28.57,28.57,0,0,1-6.66,6.73q-3.5,2.42-6.44,4.13a43.65,43.65,0,0,0-8.79,6.54l5.49,4-3.11,4.23Z" style="fill:#263238"></path><path d="M369.84,269.73a5.68,5.68,0,0,1-8.2-6q.58-3.48,4.19-8.39l12.43-17q3.44-4.66,6.44-6.07a5.87,5.87,0,0,1,8.18,6q-.44,3.3-3.86,8l-12.43,16.94Q373,268.13,369.84,269.73Zm-2.58-5.15a1.82,1.82,0,0,0,2.06,0,15.18,15.18,0,0,0,3.57-3.9l12.67-17.27q2.87-3.93,2-5.31a3.79,3.79,0,0,0-.72-.65,1.68,1.68,0,0,0-1.61,0q-1.07.42-3.19,3.33l-12.68,17.28a15.89,15.89,0,0,0-2.7,4.59A1.74,1.74,0,0,0,367.26,264.58Z" style="fill:#263238"></path><line x1="330.06" y1="240.73" x2="348.76" y2="237.62" style="fill:none;stroke:#263238;stroke-linecap:round;stroke-linejoin:round"></line><line x1="394.89" y1="245.41" x2="403.93" y2="236.99" style="fill:none;stroke:#263238;stroke-linecap:round;stroke-linejoin:round"></line></g><g id="freepik--character-1--inject-261"><ellipse cx="180.5" cy="439" rx="104.5" ry="13" style="fill:#A1D336"></ellipse><ellipse cx="180.5" cy="439" rx="104.5" ry="13" style="fill:#fff;opacity:0.5"></ellipse><path d="M178.18,130s2.56,8.81,3.41,10.52,3.7,2.56,3.7,2.56v6.83c0,1.7,4,1.42,4,1.42s6.54,6,7.4,7.39.85,2.85,2.56,3.13a13.92,13.92,0,0,0,6-.85c1.42-.57,25-13.65,25-13.65l-10.81-12.23a90.38,90.38,0,0,0-8.25-11.95c-4.55-5.4-10.81-13.94-20.19-12.23S178.18,130,178.18,130Z" style="fill:#fff;stroke:#263238;stroke-linecap:round;stroke-linejoin:round"></path><path d="M220.84,135.7s.29-14.22-4.26-24.46-18.49-15.07-26.45-11.09-15.36,12.52-15.93,21,1.7,11.94,4.26,11.09,7.11-13.65,7.11-11.09-1.7,7.39.57,9.39,5.12-.29,5.69.56,1.14,4.55,2.85,3.7,0-5.4,1.7-6,6.54,2.56,7.4,6.54,0,3.41,0,3.41,4.83,3.7,8,3.42S220.84,135.7,220.84,135.7Z" style="fill:#263238;stroke:#263238;stroke-linecap:round;stroke-linejoin:round"></path><path d="M203.78,138.83l-2,3.13a21.77,21.77,0,0,1,2.27,7.68" style="fill:none;stroke:#263238;stroke-linecap:round;stroke-linejoin:round"></path><path d="M198.33,328.83a40.92,40.92,0,0,0-5.61,15c-1.24,8.41,8.43,34.91,8.43,44.89s.61,18.07,0,24.3-4.36,9.67-6.23,12.78-6.86,5.61-6.86,8.73,8.1,5.3,10,7.79,6.24,7.17,12.47,3.12,4.68-14,5.3-19.33,2.49-25.55,4.05-30.23,5.61-21.51,3.74-32.11-7.17-21.5-7.17-21.5l5.3-5.3S201.76,333.2,198.33,328.83Z" style="fill:#fff;stroke:#263238;stroke-linecap:round;stroke-linejoin:round"></path><path d="M215.79,426.08c.11-.93.26-2.34.44-4-9.28,2-14.2-.51-16.77-3.24-1.42,2.88-3.36,5-4.55,7-1.88,3.12-6.86,5.61-6.86,8.73s8.1,5.3,10,7.79,6.24,7.17,12.47,3.12S215.17,431.38,215.79,426.08Z" style="fill:#263238;stroke:#263238;stroke-linecap:round;stroke-linejoin:round"></path><path d="M223.58,363.74q-.17-.93-.36-1.86c-.05-.21-.1-.42-.14-.63-.09-.41-.19-.82-.29-1.22l-.18-.75c-.1-.36-.19-.72-.29-1.08s-.14-.53-.22-.79-.19-.67-.28-1-.16-.54-.25-.81-.18-.6-.28-.89l-.27-.86c-.07-.22-.14-.42-.22-.64-.27-.82-.55-1.62-.83-2.38v0a28.18,28.18,0,0,0-7-1.71c-8.78-1.15-15.1,3.67-18.69,7.58,2.49,11.13,6.86,25.3,6.86,32,0,8.94.48,16.36.14,22.3,0,.69-.09,1.36-.15,2s-.14,1.06-.24,1.56l-.06.33c-.11.49-.23,1-.37,1.41l0,.07c-.14.45-.3.89-.47,1.31a.87.87,0,0,0-.07.17c-.19.44-.39.86-.59,1.26h0c-.73,3.88.42,8.89,3.7,10.71,8.42,4.68,11.84-.93,11.84-.93l.79-.73c0-.37,0-.73.06-1.07s.05-.69.09-1c.62-5.29,2.49-25.55,4.05-30.23S225.45,374.34,223.58,363.74Z" style="fill:#fff;stroke:#263238;stroke-linecap:round;stroke-linejoin:round"></path><g style="clip-path:url(#freepik--clip-path--inject-261)"><path d="M76.17,363.83A26.75,26.75,0,1,0,103,337.08,26.77,26.77,0,0,0,76.17,363.83Z" style="fill:#fff"></path><path d="M76.17,363.83a26.75,26.75,0,1,1,26.58,26.76A26.71,26.71,0,0,1,76.17,363.83Zm43.28-8.35a45.38,45.38,0,0,0-1.87-9.73.58.58,0,0,0-.26-.3,46.26,46.26,0,0,0-8.09-4,.79.79,0,0,0-.43,0l-3.19,1a24.37,24.37,0,0,0-6.09,2.8.32.32,0,0,0-.2.37c.47,3.09.93,6.18,1.4,9.26a.48.48,0,0,0,.22.31q5,2.42,9.94,4.81a.5.5,0,0,0,.38,0l8-4.31C119.32,355.7,119.38,355.57,119.45,355.48Zm-30.71,7.8h0l3.36.17a.5.5,0,0,0,.34-.11q3.78-3.91,7.52-7.84a.44.44,0,0,0,.11-.31q-.67-4.57-1.37-9.15c-.06-.44-.06-.44-.53-.5a37.51,37.51,0,0,0-7.56-.36.76.76,0,0,0-.46.19,69,69,0,0,0-6.76,7.23.51.51,0,0,0-.1.34c.15,1.11.31,2.21.47,3.31a61.9,61.9,0,0,0,1.29,6.62c0,.15.07.25.27.26C86.46,363.16,87.6,363.22,88.74,363.28Zm30.93-7-.26.14-7.82,4.22a.57.57,0,0,0-.33.49c-.26,2-.54,4-.81,5.95-.22,1.54-.43,3.09-.63,4.64a.47.47,0,0,0,.12.38l5.26,4.72a.4.4,0,0,0,.32.06,29.71,29.71,0,0,0,8.19-4.21.88.88,0,0,0,.36-.56,57,57,0,0,0,1-6.87,1.29,1.29,0,0,0-.1-.65c-.67-1.35-1.31-2.71-2-4A24.87,24.87,0,0,0,119.67,356.28ZM88.5,363.93h0l-3.36-.15a.43.43,0,0,0-.31.16c-.33.51-.65,1-1,1.55a23.28,23.28,0,0,0-2.06,5.74.47.47,0,0,0,.05.28,73.57,73.57,0,0,0,3.73,6.88.72.72,0,0,0,.32.25c1.24.35,2.48.74,3.75,1a25.08,25.08,0,0,0,5.61.41c.19,0,.2-.13.25-.25q1-2.71,1.93-5.43a.51.51,0,0,0,0-.48l-5.13-9.59a.39.39,0,0,0-.37-.23Zm14.79,22.28h.14a50.79,50.79,0,0,0,7.66-1.37.59.59,0,0,0,.29-.2,21,21,0,0,0,3.41-7,.39.39,0,0,0-.14-.45q-2.54-2.25-5-4.51a.67.67,0,0,0-.65-.17l-10.51,1.88a.42.42,0,0,0-.37.31c-.62,1.76-1.24,3.51-1.88,5.26a.63.63,0,0,0,.1.65,17.4,17.4,0,0,0,6.81,5.54A.76.76,0,0,0,103.29,386.21ZM78.7,354.37l.36-.15,3.29-1.49a1.41,1.41,0,0,0,.43-.33A77.2,77.2,0,0,1,90,344.7a.91.91,0,0,0,.22-.35l.87-2.21.71-1.8a26.11,26.11,0,0,0-13.09,14ZM128,357.24l-.09.26q-1,3.06-1.94,6.12a3.24,3.24,0,0,0-.22.81,56.53,56.53,0,0,1-1.18,8,2.79,2.79,0,0,0-.1.8c.13,1.06.29,2.11.44,3.17,0,.32.09.65.15,1.05a25.8,25.8,0,0,0,3.68-10.78A24.85,24.85,0,0,0,128,357.24ZM99.4,389.58a26,26,0,0,0,9.49-.45,25.11,25.11,0,0,0,8.6-3.82c-1.78-.07-3.56-.1-5.33-.13a1.57,1.57,0,0,0-.3.05,52.33,52.33,0,0,1-7.84,1.48,2,2,0,0,0-1.13.35c-1.06.8-2.15,1.55-3.23,2.32Zm-13.39-6c0-.12,0-.17,0-.21-.18-1.2-.35-2.39-.53-3.58a2.38,2.38,0,0,0-.23-.85,81.67,81.67,0,0,1-4-7.42,1.24,1.24,0,0,0-.23-.32l-3.56-3.08-.18-.12a25.81,25.81,0,0,0,3.43,9.32A26.21,26.21,0,0,0,86,383.57ZM105.85,338l.14.15c.93.83,1.85,1.67,2.78,2.49a1,1,0,0,0,.31.18,48.9,48.9,0,0,1,8.7,4.23,1.85,1.85,0,0,0,.65.22c.45.06.91.1,1.37.14l1.51.14A25.65,25.65,0,0,0,105.85,338Z" style="fill:#263238"></path><path d="M119.45,355.48c-.07.09-.13.22-.23.27l-8,4.31a.5.5,0,0,1-.38,0q-5-2.38-9.94-4.81a.48.48,0,0,1-.22-.31c-.47-3.08-.93-6.17-1.4-9.26a.32.32,0,0,1,.2-.37,24.37,24.37,0,0,1,6.09-2.8l3.19-1a.79.79,0,0,1,.43,0,46.26,46.26,0,0,1,8.09,4,.58.58,0,0,1,.26.3A45.38,45.38,0,0,1,119.45,355.48Z" style="fill:#fff"></path><path d="M88.74,363.28c-1.14-.06-2.28-.12-3.42-.16-.2,0-.23-.11-.27-.26a61.9,61.9,0,0,1-1.29-6.62c-.16-1.1-.32-2.2-.47-3.31a.51.51,0,0,1,.1-.34,69,69,0,0,1,6.76-7.23.76.76,0,0,1,.46-.19,37.51,37.51,0,0,1,7.56.36c.47.06.47.06.53.5q.69,4.58,1.37,9.15a.44.44,0,0,1-.11.31q-3.75,3.93-7.52,7.84a.5.5,0,0,1-.34.11l-3.36-.17Z" style="fill:#fff"></path><path d="M119.67,356.28a24.87,24.87,0,0,1,3.3,4.29c.73,1.31,1.37,2.67,2,4a1.29,1.29,0,0,1,.1.65,57,57,0,0,1-1,6.87.88.88,0,0,1-.36.56,29.71,29.71,0,0,1-8.19,4.21.4.4,0,0,1-.32-.06l-5.26-4.72a.47.47,0,0,1-.12-.38c.2-1.55.41-3.1.63-4.64.27-2,.55-4,.81-5.95a.57.57,0,0,1,.33-.49l7.82-4.22Z" style="fill:#fff"></path><path d="M88.5,363.93l3.42.17a.39.39,0,0,1,.37.23l5.13,9.59a.51.51,0,0,1,0,.48q-1,2.72-1.93,5.43c0,.12-.06.25-.25.25a25.08,25.08,0,0,1-5.61-.41c-1.27-.29-2.51-.68-3.75-1a.72.72,0,0,1-.32-.25,73.57,73.57,0,0,1-3.73-6.88.47.47,0,0,1-.05-.28,23.28,23.28,0,0,1,2.06-5.74c.3-.53.62-1,1-1.55a.43.43,0,0,1,.31-.16l3.36.15Z" style="fill:#fff"></path><path d="M103.29,386.21a.76.76,0,0,1-.18-.06,17.4,17.4,0,0,1-6.81-5.54.63.63,0,0,1-.1-.65c.64-1.75,1.26-3.5,1.88-5.26a.42.42,0,0,1,.37-.31L109,372.51a.67.67,0,0,1,.65.17q2.51,2.26,5,4.51a.39.39,0,0,1,.14.45,21,21,0,0,1-3.41,7,.59.59,0,0,1-.29.2,50.79,50.79,0,0,1-7.66,1.37Z" style="fill:#fff"></path><path d="M78.7,354.37a26.11,26.11,0,0,1,13.09-14l-.71,1.8-.87,2.21a.91.91,0,0,1-.22.35,77.2,77.2,0,0,0-7.21,7.7,1.41,1.41,0,0,1-.43.33l-3.29,1.49Z" style="fill:#fff"></path><path d="M128,357.24a24.85,24.85,0,0,1,.74,9.4,25.8,25.8,0,0,1-3.68,10.78c-.06-.4-.11-.73-.15-1.05-.15-1.06-.31-2.11-.44-3.17a2.79,2.79,0,0,1,.1-.8,56.53,56.53,0,0,0,1.18-8,3.24,3.24,0,0,1,.22-.81q1-3.06,1.94-6.12Z" style="fill:#fff"></path><path d="M99.4,389.58l.26-.2c1.08-.77,2.17-1.52,3.23-2.32a2,2,0,0,1,1.13-.35,52.33,52.33,0,0,0,7.84-1.48,1.57,1.57,0,0,1,.3-.05c1.77,0,3.55.06,5.33.13a25.11,25.11,0,0,1-8.6,3.82A26,26,0,0,1,99.4,389.58Z" style="fill:#fff"></path><path d="M86,383.57a26.21,26.21,0,0,1-5.32-6.26A25.81,25.81,0,0,1,77.26,368l.18.12L81,371.19a1.24,1.24,0,0,1,.23.32,81.67,81.67,0,0,0,4,7.42,2.38,2.38,0,0,1,.23.85c.18,1.19.35,2.38.53,3.58C86,383.4,86,383.45,86,383.57Z" style="fill:#fff"></path><path d="M105.85,338a25.65,25.65,0,0,1,15.46,7.55l-1.51-.14c-.46,0-.92-.08-1.37-.14a1.85,1.85,0,0,1-.65-.22,48.9,48.9,0,0,0-8.7-4.23,1,1,0,0,1-.31-.18c-.93-.82-1.85-1.66-2.78-2.49Z" style="fill:#fff"></path></g><circle cx="103.11" cy="363.82" r="26.75" style="fill:none;stroke:#263238;stroke-miterlimit:10"></circle><path d="M159,302.56s-6.73,7.48-13.47,14.58-9.14,18.11-8.83,25.28-1.27,17-2.39,20.36S129.81,374,129.81,374l22.82-8.23s1.87-13.47,4.11-17.21,7.11-6,8.23-10.47a52.48,52.48,0,0,1,2.25-7.11l14.58-7.1S162.35,311.91,159,302.56Z" style="fill:#fff;stroke:#263238;stroke-linecap:round;stroke-linejoin:round"></path><path d="M165,338.09c.65-2.57,1.28-4.51,1.71-5.71-.58-2.7-3.19-11.12-12.93-11.12-6.55,0-12.15,4.66-15.78,8.71a33.91,33.91,0,0,0-1.42,11.49c.37,8.6-1.13,18-2.25,21.32S129.81,374,129.81,374l22.82-8.23s1.87-13.47,4.11-17.21S163.85,342.58,165,338.09Z" style="fill:#fff;stroke:#263238;stroke-linecap:round;stroke-linejoin:round"></path><path d="M148.89,359.78s-19.82,9.73-32.54,17.58-15,24.69-9.35,25.44,18.33,0,22.44-4.49,4.11-11.22,11.59-15.71,16.84-8.23,18-14.21S156.74,356.42,148.89,359.78Z" style="fill:#263238;stroke:#263238;stroke-linecap:round;stroke-linejoin:round"></path><path d="M200.91,251.64s-34.37,39.79-39,45.09-8.11,9.35-8.11,9.35,3.12,19.33,29.3,22.75l23.77-28.56-9.74,28.88s-1.56,3.43,14,8.41S232,340.37,232,340.37s13.48-33.56,19.09-40.41,15.28-13.72,15.59-21.82-3.12-16.52-3.12-16.52-3.74-8.11-26.18-12.47S200.91,251.64,200.91,251.64Z" style="fill:#A1D336"></path><g style="clip-path:url(#freepik--clip-path-2--inject-261)"><path d="M244.86,291.54a102.26,102.26,0,0,1-23.07-1.87L207.14,299l-1.38,2.17,1.07-.92-9.74,28.88s-1.56,3.43,14,8.41S232,340.37,232,340.37s13.48-33.56,19.09-40.41c3.35-4.1,8.14-8.2,11.53-12.56A62.59,62.59,0,0,1,244.86,291.54Z" style="opacity:0.30000000000000004"></path><path d="M156.31,313.11s39.89-47.45,44.39-49.36,12.44-11.2,12.44-11.2" style="fill:none;stroke:#263238;stroke-linecap:round;stroke-linejoin:round;stroke-width:3px"></path><path d="M158.8,316.84s39.89-47.45,44.38-49.36,12.45-11.2,12.45-11.2" style="fill:none;stroke:#263238;stroke-linecap:round;stroke-linejoin:round;stroke-width:3px"></path></g><path d="M200.91,251.64s-34.37,39.79-39,45.09-8.11,9.35-8.11,9.35,3.12,19.33,29.3,22.75l23.77-28.56-9.74,28.88s-1.56,3.43,14,8.41S232,340.37,232,340.37s13.48-33.56,19.09-40.41,15.28-13.72,15.59-21.82-3.12-16.52-3.12-16.52-3.74-8.11-26.18-12.47S200.91,251.64,200.91,251.64Z" style="fill:none;stroke:#263238;stroke-linecap:round;stroke-linejoin:round"></path><path d="M241.36,147.54a19.47,19.47,0,0,1-.73-4c0-1.44,1.09-2.17,1.45-4s-1.45-3.25.36-6.13,5.77-2.17,8.3.36c0,0,2.16-.36,5,2.16a17.46,17.46,0,0,1,4,4.69s.36,2.89.72,4.69-1.16,2.1.36,3.61,1.08,4.33,1.08,4.33Z" style="fill:#fff;stroke:#263238;stroke-linecap:round;stroke-linejoin:round"></path><path d="M268.42,160.17s12.63,9.38,16.24,13,6.13,10.46,6.13,15.52-3.25,5.77-7.21,6.85-6.5-1.8-10.47-7.22-17-27.78-17-27.78,1.08-3.25,3.61-3.25S268.42,160.17,268.42,160.17Z" style="fill:#fff;stroke:#263238;stroke-linecap:round;stroke-linejoin:round"></path><path d="M235.63,145.94A21.78,21.78,0,0,0,218,144.52c-10,3.41-12.52,12.8-15.64,15.08s-11.67,10.8-10.81,21.33,12.51,31.85,12.23,38.11-.29,20.48-1.14,25.31-4.84,12-4.84,12a69.71,69.71,0,0,1,25.89-5.12c14.5,0,26.73,3.41,30.43,5.68a78.63,78.63,0,0,0,10.52,4.84S259,237,259,234.11s-.56-6.26,1.14-9.67,4.84-29,4.84-29l5.29,8.76s18.6-3.35,18.31-15.87c0,0-8.81-13.37-12.51-18.77s-8-13.94-13.65-19.06-13.09-5.12-16.21-5.12S235.63,145.94,235.63,145.94Z" style="fill:#A1D336;stroke:#263238;stroke-linecap:round;stroke-linejoin:round"></path><path d="M199.23,213.35s13.62-7.71,16.5-11-.36-11.55-7.21-9S199,211.68,199.23,213.35Z" style="fill:#263238;stroke:#263238;stroke-linecap:round;stroke-linejoin:round"></path><path d="M219.42,189.74a84.69,84.69,0,0,1,6.54,11.1c2,4.55-8.53,51.76-8.53,51.76A58.11,58.11,0,0,1,221.7,260a30.84,30.84,0,0,1,2.27,11.1c0,2.27-3.41,4.83-3.41,4.83s4.83,2.28,2.84,2.84-2.84.86-2.84.86,1.7,2.56.28,2.56a27.66,27.66,0,0,1-7.39-1.14c-2.56-.85-6-5.69-8.53-9.39s2.27-16.49,2.84-19.9.57-28.16-.29-32.71,0-14.51,0-14.51l-5.4-4A19.53,19.53,0,0,1,219.42,189.74Z" style="fill:#fff;stroke:#263238;stroke-linecap:round;stroke-linejoin:round"></path><path d="M220.56,279.62s-4.25.45-5.6-.15-5.52-5.83-5.52-5.83" style="fill:none;stroke:#263238;stroke-linecap:round;stroke-linejoin:round"></path><polyline points="221.09 275.88 217.2 275.44 212.87 271.55" style="fill:none;stroke:#263238;stroke-linecap:round;stroke-linejoin:round"></polyline><path d="M222.43,273.94s-2.84-.89-3-1.34-3.28-4-3.28-4" style="fill:none;stroke:#263238;stroke-linecap:round;stroke-linejoin:round"></path><path d="M202.07,161.87A26.36,26.36,0,0,0,187.28,173c-5.4,8.82,2.28,20.77,4.84,26.45s7.11,13.94,7.11,13.94,5.4-12.8,11.09-17.35a18.15,18.15,0,0,1,11.94-4s-7.39-11.09-9.95-14.79-8.53-6-8.53-6" style="fill:#A1D336;stroke:#263238;stroke-linecap:round;stroke-linejoin:round"></path><polyline points="264.93 195.43 264.81 178.57 265.89 165.22" style="fill:none;stroke:#263238;stroke-linecap:round;stroke-linejoin:round"></polyline><path d="M230.54,216.44c-.19-17.67,1.57-23.81-3.89-41.69a4.77,4.77,0,0,1-1.82,2.33,8.44,8.44,0,0,1-2.86,1.23c-.43-1.94-1-3.86-1.42-5.78a7.73,7.73,0,0,0,3.32-2.92,14.88,14.88,0,0,0,1.77-5l4.94-1.11c4.37,20.79,6.07,31.4,6.61,52.65C235,216.29,232.76,216.36,230.54,216.44Z" style="fill:#263238"></path><path d="M259.58,209.76c-1.88,3.45-4.18,4.13-7.29,4.42s-5.2.24-7-2.88-1.92-6-1.74-10.87c.24-6.35-1.53-17.88-3.29-24.07-1.3-4.55-1.57-7.18-.34-10.49s3.49-4.07,6.48-4.61,5.42-.57,8,2,3.44,4.86,4.54,9.55c1.5,6.37,3.27,18.08,3.26,24.75C262.12,202.71,261.46,206.31,259.58,209.76Zm-7.43-2.36c1.16-.11,1.67-.12,2.45-1.91s1-3.49,1-6.89a128.18,128.18,0,0,0-3.2-24.86c-1-3.91-1-4.59-3.69-6-.53-.28-.8-.07-1.42.19s-1.19,0-1.52,1.53-.27,2.55.5,5.45c1.73,6.49,3.37,18,3.23,24.67-.07,3.39-.17,4.8.48,6.55S251,207.51,252.15,207.4Z" style="fill:#263238"></path><line x1="223.71" y1="269.3" x2="221.83" y2="268.88" style="fill:none;stroke:#263238;stroke-linecap:round;stroke-linejoin:round"></line></g></svg>
