<svg xmlns="http://www.w3.org/2000/svg" viewBox="0 0 500 500"><g id="freepik--background-complete--inject-517"><path d="M324.17,90l.56,1a6.85,6.85,0,0,0,2.71,2.68l1,.55-1,.55a6.81,6.81,0,0,0-2.71,2.69l-.56,1-.55-1a6.81,6.81,0,0,0-2.71-2.69l-1-.55,1-.55A6.85,6.85,0,0,0,323.62,91Z" style="fill:#ebebeb"></path><path d="M113.84,44.77l.56,1a6.7,6.7,0,0,0,2.7,2.68l1,.56-1,.55a6.76,6.76,0,0,0-2.7,2.68l-.56,1-.56-1a6.76,6.76,0,0,0-2.7-2.68l-1-.55,1-.56a6.7,6.7,0,0,0,2.7-2.68Z" style="fill:#ebebeb"></path><path d="M444.31,154.69l.56,1a6.72,6.72,0,0,0,2.71,2.68l1,.55-1,.55a6.72,6.72,0,0,0-2.71,2.68l-.56,1-.56-1a6.76,6.76,0,0,0-2.7-2.68l-1-.55,1-.55a6.76,6.76,0,0,0,2.7-2.68Z" style="fill:#ebebeb"></path><path d="M33.24,224.31l.55,1A6.85,6.85,0,0,0,36.5,228l1,.55-1,.55a6.85,6.85,0,0,0-2.71,2.68l-.55,1-.56-1A6.72,6.72,0,0,0,30,229.1l-1-.55,1-.55a6.72,6.72,0,0,0,2.71-2.68Z" style="fill:#ebebeb"></path><path d="M224.51,41.69l1,1.75a11.63,11.63,0,0,0,4.63,4.62l1.74,1-1.74.95a11.65,11.65,0,0,0-4.63,4.63l-1,1.74-.95-1.74A11.65,11.65,0,0,0,218.93,50L217.19,49l1.74-1a11.63,11.63,0,0,0,4.63-4.62Z" style="fill:#ebebeb"></path><path d="M94.63,127.27l1,1.74a11.72,11.72,0,0,0,4.63,4.63l1.74,1-1.74.95a11.72,11.72,0,0,0-4.63,4.63l-1,1.74-.95-1.74a11.65,11.65,0,0,0-4.63-4.63l-1.74-.95,1.74-1A11.65,11.65,0,0,0,93.68,129Z" style="fill:#ebebeb"></path><path d="M418,69.38l.28.5a3.32,3.32,0,0,0,1.34,1.34l.5.28-.5.28a3.32,3.32,0,0,0-1.34,1.34l-.28.5-.27-.5a3.39,3.39,0,0,0-1.34-1.34l-.51-.28.51-.28a3.39,3.39,0,0,0,1.34-1.34Z" style="fill:#ebebeb"></path><path d="M41.23,149.54l.28.51a3.32,3.32,0,0,0,1.34,1.34l.5.28-.5.27a3.39,3.39,0,0,0-1.34,1.34l-.28.51-.27-.51a3.45,3.45,0,0,0-1.34-1.34l-.51-.27.51-.28A3.39,3.39,0,0,0,41,150.05Z" style="fill:#ebebeb"></path><path d="M101,392.34c7.46,7.1,15.06,16.73,25.32,15.76C137.61,407,146,393,157,395.56c6,1.39,9.63,7.18,14.38,11,9.55,7.72,24,7.16,34.66,1.15s18.2-16.49,23.68-27.47C246,347.76,247.05,310,246.69,273.69L250,151.75l3.31,125c-.36,36.32.71,74.06,16.93,106.56,5.48,11,13,21.47,23.68,27.48s25.11,6.56,34.66-1.15c4.75-3.84,8.43-9.63,14.38-11,11-2.57,19.43,11.48,30.71,12.54,10.26,1,17.86-8.66,25.32-15.76a66.16,66.16,0,0,1,38.42-17.36,202.16,202.16,0,0,0,11.18-66.5c0-111.8-90.63-202.44-202.43-202.44S43.72,199.75,43.72,311.55a202.14,202.14,0,0,0,10,63C71,374.23,88.47,380.42,101,392.34Z" style="fill:#ebebeb"></path><path d="M355.15,262H479.41s-11-20-43-17.08c-30.55,2.78-32.1-9.84-47.63-11.39S360.33,243.92,355.15,262Z" style="fill:#fff"></path><path d="M20,287.68H99.39s-7-12.79-27.47-10.93c-19.53,1.78-20.52-6.28-30.45-7.28S23.26,276.09,20,287.68Z" style="fill:#fff"></path><path d="M208.9,406c.51-.33,1-.67,1.49-1l.66-.5c.48-.37,1-.74,1.42-1.12l.57-.47c.53-.46,1.06-.92,1.58-1.4l.3-.28a58.47,58.47,0,0,0,5.47-6l0,0c.57-.71,1.12-1.43,1.66-2.17h0c-6.71-.47-13.61.42-20-1.54-13.13-4-20.39-18.54-32.9-24.19-16.48-7.45-37.81,2.27-53-7.57-11.4-7.38-14.26-22.54-21.57-34-10.83-17-31.4-26-50.74-20.42q-.11,3.12-.11,6.25A202.56,202.56,0,0,0,53,372.15c.47.81.93,1.62,1.43,2.44.18,0,.37,0,.55,0l2.53,0,.64,0c.86,0,1.71.08,2.56.15.21,0,.42,0,.62.06.86.07,1.72.16,2.57.27l.62.08c.85.12,1.7.24,2.55.39l.63.12c.84.16,1.68.32,2.51.5l.67.16c.81.19,1.63.38,2.44.6l.72.21c.78.22,1.57.45,2.35.7l.78.27c.75.25,1.5.5,2.24.78l.85.34c.71.27,1.42.55,2.11.85.32.13.63.28.94.42.66.3,1.32.59,2,.91.35.16.69.35,1,.53.61.3,1.21.61,1.81.93.38.21.74.44,1.12.65.55.32,1.1.63,1.64,1l1.23.79,1.46.95c.46.32.9.66,1.36,1s.83.59,1.23.9,1,.84,1.57,1.26c.3.26.62.5.93.76.81.69,1.61,1.41,2.39,2.15,7.46,7.1,15.06,16.73,25.32,15.76C137.61,407,146,393,157,395.56c6,1.39,9.63,7.18,14.38,11,9.55,7.72,24,7.16,34.66,1.15.75-.41,1.47-.86,2.19-1.32Z" style="fill:#e0e0e0"></path><path d="M401.6,393.08l1.39-1.15c.25-.2.52-.39.78-.59.44-.34.88-.68,1.33-1l.83-.59,1.34-.92.85-.55c.46-.29.92-.59,1.39-.87.28-.18.57-.34.85-.5l1.44-.83.86-.46,1.5-.78.84-.4c.52-.25,1-.5,1.56-.74l.83-.36,1.62-.68.81-.32,1.68-.63.79-.27,1.74-.58.77-.23c.6-.18,1.19-.36,1.79-.52l.76-.2,1.83-.45.75-.17,1.87-.38.73-.14c.63-.11,1.26-.22,1.9-.31l.72-.11,1.06-.15c.79-1.1,1.54-2.19,2.25-3.29a202,202,0,0,0,10.13-63.35q0-6.14-.37-12.18c-19.53-4.9-37.9,5-48.12,22.39-6.9,11.7-9.23,26.95-20.36,34.74-14.83,10.36-36.48,1.39-52.7,9.42C314.75,372,308,386.79,295,391.26c-6,2.07-12.6,1.58-19,2.14h0c.53.78,1.07,1.56,1.63,2.32.14.21.29.41.44.61.46.61.92,1.22,1.39,1.81l.41.51c.59.74,1.21,1.46,1.84,2.16l.33.37c.53.58,1.07,1.15,1.62,1.7l.57.57c.56.56,1.14,1.1,1.73,1.63l.35.32c.7.61,1.42,1.2,2.15,1.77l.58.43c.57.44,1.16.86,1.76,1.27l.67.45c.78.51,1.58,1,2.41,1.47,10.7,6,25.11,6.56,34.66-1.15,4.75-3.84,8.43-9.63,14.38-11,11-2.57,19.43,11.48,30.71,12.54,10.26,1,17.86-8.66,25.32-15.76.64-.61,1.3-1.21,2-1.79C401.17,393.44,401.39,393.27,401.6,393.08Z" style="fill:#e0e0e0"></path></g><g id="freepik--Rocket--inject-517"><path d="M323.11,431.8a38.11,38.11,0,0,0-13.26-3.35c-13-.9-25.15-6.75-34.85-15.5q-.6-.54-1.2-1.05c-6.19-5.2-12.68-13.37-14-21.34-5-29.61-8.68-70.41-8.42-91.85h-3s-.33,52.11-10,96.18a13.91,13.91,0,0,1-8.34,9.75,45.83,45.83,0,0,0-22.28,20.07,14.16,14.16,0,0,1-14.44,7.08,34,34,0,0,0-38.16,27.78l189.72.1A39.16,39.16,0,0,0,323.11,431.8Z" style="fill:#ebebeb"></path><path d="M216.13,279.83H176V143.74a20,20,0,0,1,20-20h0a20,20,0,0,1,20,20Z" style="fill:#A1D336"></path><path d="M216.13,279.83H176V143.74a20,20,0,0,1,20-20h0a20,20,0,0,1,20,20Z" style="fill:#455a64"></path><path d="M216.13,141.56c0,.14-8.95.26-20,.26s-20-.12-20-.26,9-.26,20-.26S216.13,141.41,216.13,141.56Z" style="fill:#263238"></path><path d="M216.13,176.3c0,.15-8.95.26-20,.26s-20-.11-20-.26,9-.26,20-.26S216.13,176.16,216.13,176.3Z" style="fill:#263238"></path><path d="M205,176.3c-.14,0-.26-7.78-.26-17.37s.12-17.37.26-17.37.26,7.77.26,17.37S205.16,176.3,205,176.3Z" style="fill:#263238"></path><path d="M200.31,151.67a1.41,1.41,0,1,1-1.41-1.41A1.41,1.41,0,0,1,200.31,151.67Z" style="fill:#263238"></path><path d="M200.31,163.68a1.41,1.41,0,1,1-1.41-1.41A1.41,1.41,0,0,1,200.31,163.68Z" style="fill:#263238"></path><path d="M216.13,247c0,.14-8.95.26-20,.26s-20-.12-20-.26,9-.26,20-.26S216.13,246.83,216.13,247Z" style="fill:#263238"></path><path d="M205,247c-.14,0-.26-7.78-.26-17.37s.12-17.37.26-17.37.26,7.77.26,17.37S205.16,247,205,247Z" style="fill:#263238"></path><circle cx="198.9" cy="222.33" r="1.41" style="fill:#263238"></circle><circle cx="198.9" cy="234.35" r="1.41" style="fill:#263238"></circle><path d="M176.16,212c0-.14,9-.26,20-.26s20,.12,20,.26-8.95.26-20,.26S176.16,212.09,176.16,212Z" style="fill:#263238"></path><path d="M187.27,212c-.14,0-.26-7.78-.26-17.37s.12-17.37.26-17.37.26,7.77.26,17.37S187.42,212,187.27,212Z" style="fill:#263238"></path><path d="M192,187.32a1.41,1.41,0,1,0,1.41-1.42A1.41,1.41,0,0,0,192,187.32Z" style="fill:#263238"></path><path d="M192,199.33a1.41,1.41,0,1,0,1.41-1.41A1.41,1.41,0,0,0,192,199.33Z" style="fill:#263238"></path><path d="M178.67,145a2.76,2.76,0,0,1,0-.8,18.91,18.91,0,0,1,.26-2.17,25,25,0,0,1,2.21-6.86,20.18,20.18,0,0,1,2.14-3.36,15.67,15.67,0,0,1,2.3-2.31,11.83,11.83,0,0,1,1-.73,5,5,0,0,1,.81-.48,2.71,2.71,0,0,1,.73-.33c.05.09-.95.63-2.31,1.83a17.18,17.18,0,0,0-2.17,2.32,22.77,22.77,0,0,0-2.05,3.3,29.41,29.41,0,0,0-2.3,6.69C178.9,143.87,178.76,145,178.67,145Z" style="fill:#fafafa"></path><path d="M194.9,126.25c0,.14-.6.36-1.4.5s-1.46.13-1.48,0,.6-.37,1.4-.51S194.88,126.1,194.9,126.25Z" style="fill:#fafafa"></path><path d="M280.59,279.83h40.09V143.74a20,20,0,0,0-20.05-20h0a20,20,0,0,0-20,20Z" style="fill:#A1D336"></path><path d="M280.59,279.83h40.09V143.74a20,20,0,0,0-20.05-20h0a20,20,0,0,0-20,20Z" style="fill:#455a64"></path><path d="M280.59,141.56c0-.15,9-.26,20-.26s20,.11,20,.26-8.95.26-20,.26S280.59,141.7,280.59,141.56Z" style="fill:#263238"></path><path d="M280.59,176.3c0-.14,9-.26,20-.26s20,.12,20,.26-8.95.26-20,.26S280.59,176.45,280.59,176.3Z" style="fill:#263238"></path><path d="M291.7,176.3c-.14,0-.26-7.78-.26-17.37s.12-17.37.26-17.37.26,7.77.26,17.37S291.85,176.3,291.7,176.3Z" style="fill:#263238"></path><path d="M296.4,151.67a1.41,1.41,0,1,0,1.41-1.41A1.41,1.41,0,0,0,296.4,151.67Z" style="fill:#263238"></path><path d="M296.4,163.68a1.41,1.41,0,1,0,1.41-1.41A1.41,1.41,0,0,0,296.4,163.68Z" style="fill:#263238"></path><path d="M280.59,247c0-.14,9-.26,20-.26s20,.12,20,.26-8.95.26-20,.26S280.59,247.11,280.59,247Z" style="fill:#263238"></path><path d="M291.7,247c-.14,0-.26-7.78-.26-17.37s.12-17.37.26-17.37S292,220,292,229.6,291.85,247,291.7,247Z" style="fill:#263238"></path><circle cx="297.81" cy="222.33" r="1.41" style="fill:#263238"></circle><circle cx="297.81" cy="234.35" r="1.41" style="fill:#263238"></circle><path d="M320.56,212c0,.14-8.95.26-20,.26s-20-.12-20-.26,9-.26,20-.26S320.56,211.81,320.56,212Z" style="fill:#263238"></path><path d="M309.44,212c-.14,0-.26-7.78-.26-17.37s.12-17.37.26-17.37.26,7.77.26,17.37S309.59,212,309.44,212Z" style="fill:#263238"></path><path d="M304.74,187.32a1.41,1.41,0,1,1-1.41-1.42A1.41,1.41,0,0,1,304.74,187.32Z" style="fill:#263238"></path><path d="M304.74,199.33a1.41,1.41,0,1,1-1.41-1.41A1.41,1.41,0,0,1,304.74,199.33Z" style="fill:#263238"></path><path d="M318,145c-.08,0-.23-1.12-.62-2.9a29.51,29.51,0,0,0-2.31-6.69,21.16,21.16,0,0,0-2.05-3.3,17.16,17.16,0,0,0-2.16-2.32c-1.36-1.2-2.37-1.74-2.32-1.83a2.54,2.54,0,0,1,.74.33,5,5,0,0,1,.81.48,11.83,11.83,0,0,1,1,.73,15.67,15.67,0,0,1,2.3,2.31,20.18,20.18,0,0,1,2.14,3.36,25.24,25.24,0,0,1,2.2,6.86,19.35,19.35,0,0,1,.27,2.17A2.18,2.18,0,0,1,318,145Z" style="fill:#fff"></path><path d="M301.81,126.25c0-.15.69-.15,1.49,0s1.42.36,1.4.51-.69.14-1.49,0S301.79,126.39,301.81,126.25Z" style="fill:#fff"></path><path d="M236.5,70.15,222.44,96.69a54.12,54.12,0,0,0-6.31,25.38V306.72l24.65,15.75h17.09l23-15.75V122.88A54.26,54.26,0,0,0,275,98.46L260.69,70a9.54,9.54,0,0,0-8.53-5.25h-7.08A9.55,9.55,0,0,0,236.5,70.15Z" style="fill:#A1D336"></path><path d="M216.13,292h-62s0-27.33,25.93-46.78,36.08-63.44,36.08-63.44Z" style="fill:#A1D336"></path><path d="M280.85,292h62s0-27.33-25.93-46.78-36.07-63.44-36.07-63.44Z" style="fill:#A1D336"></path><path d="M216.13,292h-62s0-27.33,25.93-46.78,36.08-63.44,36.08-63.44Z" style="opacity:0.2"></path><path d="M280.85,292h62s0-27.33-25.93-46.78-36.07-63.44-36.07-63.44Z" style="opacity:0.2"></path><path d="M220.69,195.49c-.14,0-.26-13.63-.26-30.45s.12-30.45.26-30.45S221,148.22,221,165,220.83,195.49,220.69,195.49Z" style="fill:#fafafa"></path><path d="M221.37,116.53a7.44,7.44,0,0,1,.26,2.77,7.44,7.44,0,0,1-.26,2.77,7.7,7.7,0,0,1-.26-2.77A7.7,7.7,0,0,1,221.37,116.53Z" style="fill:#fafafa"></path><path d="M241.38,69.38c.13.06-4.11,8.57-9.46,19s-9.79,18.84-9.92,18.77,4.11-8.57,9.46-19S241.25,69.31,241.38,69.38Z" style="fill:#fafafa"></path><path d="M209.42,210.61a.74.74,0,0,1,0,.24c0,.19-.07.42-.12.71l-.22,1.14a11.94,11.94,0,0,1-.38,1.55,39.58,39.58,0,0,1-3.86,9.37,66.88,66.88,0,0,1-8.93,12.09c-3.81,4.2-8.36,8.45-13.17,12.85a93.35,93.35,0,0,0-12.28,13.58,75.08,75.08,0,0,0-4.36,6.7,66.91,66.91,0,0,0-3.11,6.24,56,56,0,0,0-3.17,9.57c-.3,1.15-.42,2.07-.57,2.68l-.15.7a.64.64,0,0,1-.07.24.87.87,0,0,1,0-.24l.1-.71c.11-.62.2-1.55.47-2.72a53,53,0,0,1,3-9.67,64.35,64.35,0,0,1,3.07-6.3,74.2,74.2,0,0,1,4.35-6.77,92.63,92.63,0,0,1,12.32-13.69c4.81-4.39,9.36-8.62,13.17-12.79a68.09,68.09,0,0,0,9-11.95,42,42,0,0,0,4-9.23,15.19,15.19,0,0,0,.42-1.53c.1-.44.19-.81.26-1.13s.13-.51.18-.7A.74.74,0,0,1,209.42,210.61Z" style="fill:#fafafa"></path><path d="M253.83,128.1H243.14a11.72,11.72,0,0,1-11.72-11.72h0a11.72,11.72,0,0,1,11.72-11.72h10.69a11.71,11.71,0,0,1,11.72,11.72h0A11.72,11.72,0,0,1,253.83,128.1Z" style="fill:#fff"></path><polyline points="216.13 306.72 240.78 322.46 257.87 322.46 280.85 306.72 280.85 300.23 216.13 300.23 216.13 306.72" style="opacity:0.4"></polyline></g></svg>