<svg xmlns="http://www.w3.org/2000/svg" xmlns:xlink="http://www.w3.org/1999/xlink" viewBox="0 0 500 500"><defs><clipPath id="freepik--clip-path--inject-337"><polygon points="98.78 146.01 97.69 152.86 96.29 161.57 95.42 167.04 86.79 167.04 85.92 161.57 84.52 152.86 83.43 146.01 98.78 146.01" style="fill:#A1D336"></polygon></clipPath><clipPath id="freepik--clip-path-2--inject-337"><path d="M290.8,277.31v3H289L287.91,286l-3.64,18.82a35.79,35.79,0,0,1-14.77-1.18l-.09-1.49-1.55-24.55h-1.19l1.19-3A36.65,36.65,0,0,1,290.8,277.31Z" style="fill:#A1D336"></path></clipPath><clipPath id="freepik--clip-path-3--inject-337"><path d="M289.22,295c-1.38-.6-3.82-7.63-3.82-7.63s-6.6-.35-8.58-3.71,3.7-1.39,4.69-1,6.92-.6,8.11,0,4.95,4.85,4.95,4.85l19.48,4.37,8.21,1.84,5.1-10.67a18.4,18.4,0,0,1,2.8-6.46c2-2.5,6.93-25.78,8.89-29.73s9.77-15.39,9.77-15.39l8.64,32.32s-5.69,36.48-14.19,45.54c-6.54,7-23.84,4.29-37.61-2.08a57.61,57.61,0,0,1-11.09-6.59" style="fill:#fff"></path></clipPath><clipPath id="freepik--clip-path-4--inject-337"><path d="M347.06,232.34s-10.09,11.14-10.72,14.9-8.4,29.11-9.07,29.79-5.83,8.33-5.61,12.42c0,0,15.21,9.5,18.43,13.76s13.22-30.06,13.22-42.72S347.06,232.34,347.06,232.34Z" style="fill:#A1D336"></path></clipPath><clipPath id="freepik--clip-path-5--inject-337"><path d="M342.09,451.88h-9.15c-6.66,0-9.46-2.06-9.46-2.06s-9.41,2-15.9,2c-5.26,0-13.75.59-20-.27a23.46,23.46,0,0,1-3.95-.86v-2c-2.08-6.33,1.19-8.65,9.93-11.34a29.92,29.92,0,0,0,10.81-5.61,24.16,24.16,0,0,0,7.53-12.26s23.66.45,27.13,5.37S342.09,451.88,342.09,451.88Z" style="fill:#fff"></path></clipPath><clipPath id="freepik--clip-path-6--inject-337"><path d="M314,179.64s4.89-12.24,6.68-14.76,12.9-2.38,21.54-2.58,16.76,10.15,16.76,10.15v13.41a132.33,132.33,0,0,0-22.33-3.62c-2.38-.19-4.86-.32-7.4-.35" style="fill:#A1D336"></path></clipPath><clipPath id="freepik--clip-path-7--inject-337"><path d="M314.22,181.8s-17.71-2.28-18.76-3.62,19.41-1.07,33.75,3.71A73.49,73.49,0,0,0,314.22,181.8Z" style="fill:#A1D336"></path></clipPath><clipPath id="freepik--clip-path-8--inject-337"><path d="M410.52,323.86s-10,17.7-23.81,17.35c-17.09-.43-39.52-19-49.73-20.29-6.42-.79-7.71-5.69-6.65-11.74,2-11.37,12.2-26.81,12.2-26.81A95.12,95.12,0,0,1,340,264c-.42-9.26.43-20.61,5.08-30.55,0,0-.24-5.07,10.53-13.47l11.13-7.28s15.86,9.59,25.36,21.31S415.63,318.67,410.52,323.86Z" style="fill:#fff"></path></clipPath><clipPath id="freepik--clip-path-9--inject-337"><path d="M403.81,351.33c-10,18.74-89,19.62-89,19.62s19.12,38.92,20.7,40.2,0,7.05,0,7.05,7.41,8.44,6.6,12.81a153,153,0,0,0-15.3,1.46c-6.06,1.06-18.72-2-23-1.83L300,426.51l-1.75-1.89,2-4.57s-6.49-10.33-6.49-11.77S288,397,288,397s-28.61-31.53-23.58-52.38c6.2-25.7,55.23-32.62,81.14-26.29l.08,0c1.09.46,13.08,5.49,22.77,8.9,4.85,1.71,9.13,3,11.17,3.13,25.92,1.59,30.93-6.5,30.93-6.5S413.84,332.58,403.81,351.33Z" style="fill:#757575"></path></clipPath><clipPath id="freepik--clip-path-10--inject-337"><path d="M219.89,325.17c-2.76,10.1-6.14,17.89-6.14,21.07,0,1.55-1.65,5.39-2.54,10.33-.18,1-.33,2.07-.43,3.17-1.28,14-1.48,33.93-2.65,38.54C206.42,405,203.36,420,203.36,420s-5.59,4.75-12.14-2c-5.5-5.64-3.81-56.22-2.63-79.49.15-3.19.3-5.86.42-7.84L186,293l8.86-3.13.54-.19,4.48-1.59,6.5-2.3s15.43-2.09,16.66,9.48C224.18,306,222.26,316.45,219.89,325.17Z" style="fill:#A1D336"></path></clipPath><clipPath id="freepik--clip-path-11--inject-337"><path d="M233.29,219a79.93,79.93,0,0,0-8,6.23c-1.16,1-2,1.67-2,1.67a97.92,97.92,0,0,1-7.87,31.47H179.86c-11.15-23.2-7-31.91-8.59-34.41a10.44,10.44,0,0,0-2.22-2.18,59.2,59.2,0,0,0-6.71-4.3s-.26-3.68,4.48-8.08,17.41-8.52,30.56-8.52c16.92,0,26.56,4,29.31,7.38A58.78,58.78,0,0,1,233.29,219Z" style="fill:#bfbfbf"></path></clipPath><clipPath id="freepik--clip-path-12--inject-337"><path d="M202.18,235.16h-9.77a1.35,1.35,0,0,1-1.34-1.2L189,214.23a1.33,1.33,0,0,1,1.33-1.48h13.93a1.34,1.34,0,0,1,1.33,1.48L203.51,234A1.34,1.34,0,0,1,202.18,235.16Z" style="fill:#263238"></path></clipPath><clipPath id="freepik--clip-path-13--inject-337"><path d="M295.81,289.45v11.07s-3.16,2.5-4.22,2.63c-.22,0-1,.05-2,.05-3.86,0-11.78-.05-11.78-.05s-6-15.39-4.81-15.8,14.06-3.4,16.62-2.92a6.51,6.51,0,0,1,2.56,1.37A26.84,26.84,0,0,1,295.81,289.45Z" style="fill:#fff"></path></clipPath><clipPath id="freepik--clip-path-14--inject-337"><path d="M95.42,167.54H86.79a.49.49,0,0,1-.49-.42l-3.36-21a.47.47,0,0,1,.11-.41.49.49,0,0,1,.38-.17H98.78a.49.49,0,0,1,.49.58l-3.36,21A.5.5,0,0,1,95.42,167.54Zm-8.2-1H95l3.2-20H84Z" style="fill:#263238;clip-path:url(#freepik--clip-path--inject-337)"></path></clipPath><clipPath id="freepik--clip-path-15--inject-337"><path d="M198.51,422.14c-2.16,0-4.83-.85-7.65-3.73-6-6.17-3.64-62.69-2.77-79.87.15-3.19.3-5.86.42-7.84l-3-37.64a.49.49,0,0,1,.33-.51l20.38-7.21.1,0c.35,0,8.45-1.09,13.48,2.86a10,10,0,0,1,3.75,7.07c.95,8.9-.08,18.73-3.16,30.06h0c-1.18,4.34-2.46,8.18-3.58,11.56-1.42,4.27-2.54,7.64-2.54,9.38a17,17,0,0,1-.87,3.75,61.87,61.87,0,0,0-1.68,6.67c-.19,1.06-.33,2.11-.42,3.13-.57,6.21-.93,13.69-1.25,20.29-.4,8.43-.75,15.71-1.42,18.32-1.68,6.64-4.73,21.58-4.76,21.73a.46.46,0,0,1-.17.28A8.67,8.67,0,0,1,198.51,422.14Zm-12-128.78,3,37.33c-.12,2.05-.27,4.72-.42,7.9-1.78,35.19-2.07,74.45,2.49,79.12,5.69,5.84,10.47,2.69,11.33,2,.35-1.71,3.14-15.33,4.74-21.59.63-2.52,1-9.75,1.38-18.13.32-6.61.68-14.1,1.25-20.34.1-1,.24-2.12.44-3.21a60.6,60.6,0,0,1,1.7-6.78,17.06,17.06,0,0,0,.83-3.46c0-1.9,1.09-5.17,2.59-9.7,1.12-3.37,2.39-7.19,3.57-11.5h0c3-11.21,4.07-20.92,3.12-29.7a9,9,0,0,0-3.36-6.38c-4.51-3.54-12-2.74-12.68-2.66Zm33.37,31.81h0Z" style="fill:#263238;clip-path:url(#freepik--clip-path-10--inject-337)"></path></clipPath><clipPath id="freepik--clip-path-16--inject-337"><path d="M215.45,258.86H179.86a.5.5,0,0,1-.45-.28c-8.12-16.9-8.16-26-8.18-31,0-1.7,0-2.83-.38-3.4a9.78,9.78,0,0,0-2.11-2.06,57.9,57.9,0,0,0-6.64-4.25.49.49,0,0,1-.26-.4c0-.16-.22-4,4.64-8.49,4.53-4.19,16.9-8.65,30.9-8.65,16.2,0,26.59,3.8,29.7,7.56a60.28,60.28,0,0,1,6.66,10.85.49.49,0,0,1-.2.64,86.81,86.81,0,0,0-7.95,6.18l-1.79,1.53a99.53,99.53,0,0,1-7.9,31.45A.5.5,0,0,1,215.45,258.86Zm-35.28-1h35a99.57,99.57,0,0,0,7.69-31,.51.51,0,0,1,.17-.34s.79-.69,2-1.67a93.06,93.06,0,0,1,7.69-6,56.59,56.59,0,0,0-6.34-10.23c-2.2-2.67-10.78-7.2-28.92-7.2-13.75,0-25.83,4.32-30.22,8.39-3.78,3.5-4.26,6.53-4.31,7.42a57,57,0,0,1,6.51,4.2,10.69,10.69,0,0,1,2.33,2.3c.53.81.53,2,.54,3.94C172.25,232.42,172.29,241.35,180.17,257.86Z" style="fill:#263238;clip-path:url(#freepik--clip-path-11--inject-337)"></path></clipPath><clipPath id="freepik--clip-path-17--inject-337"><path d="M202.18,235.66h-9.77a1.83,1.83,0,0,1-1.83-1.65l-2.08-19.73a1.82,1.82,0,0,1,.46-1.42,1.84,1.84,0,0,1,1.37-.61h13.93a1.8,1.8,0,0,1,1.36.61,1.86,1.86,0,0,1,.47,1.42L204,234A1.84,1.84,0,0,1,202.18,235.66Zm-11.85-22.41a.86.86,0,0,0-.84.93l2.08,19.73a.85.85,0,0,0,.84.75h9.77a.84.84,0,0,0,.83-.75l2.08-19.73a.84.84,0,0,0-.83-.93Z" style="fill:#263238;clip-path:url(#freepik--clip-path-12--inject-337)"></path></clipPath><clipPath id="freepik--clip-path-18--inject-337"><path d="M287.16,303.71c-4,0-9.29-.06-9.36-.06a.51.51,0,0,1-.46-.32c-1.32-3.39-5.59-14.59-4.9-16.09a.74.74,0,0,1,.4-.36c1.23-.44,14.22-3.44,16.87-2.94a6.79,6.79,0,0,1,2.78,1.47,26.58,26.58,0,0,1,3.71,3.73.51.51,0,0,1,.11.31v11.07a.49.49,0,0,1-.19.39c-.55.43-3.33,2.6-4.47,2.74-.37.05-1.67.05-2.06.05Zm-9-1.06c1.56,0,8.08.08,11.43.05,1.1,0,1.78,0,1.94-.05a15.09,15.09,0,0,0,3.79-2.37V289.63a26.75,26.75,0,0,0-3.44-3.44,6.15,6.15,0,0,0-2.34-1.27c-2.26-.41-14.21,2.25-16.19,2.85C273.24,289.08,275.64,296.18,278.15,302.65Zm-5-14.83Z" style="fill:#263238;clip-path:url(#freepik--clip-path-13--inject-337)"></path></clipPath><clipPath id="freepik--clip-path-19--inject-337"><path d="M279.68,305.56a33.37,33.37,0,0,1-10.35-1.47.5.5,0,0,1-.33-.44l-.09-1.49-1.52-24.08h-.72a.51.51,0,0,1-.47-.68l1.19-3a.52.52,0,0,1,.38-.31A37.6,37.6,0,0,1,291,276.87a.51.51,0,0,1,.26.44v3a.5.5,0,0,1-.5.5h-1.37l-4.67,24.12a.51.51,0,0,1-.43.41A43.15,43.15,0,0,1,279.68,305.56Zm-9.7-2.31a36.6,36.6,0,0,0,13.87,1.09l4.68-24.17a.49.49,0,0,1,.49-.4h1.28v-2.15A36.78,36.78,0,0,0,268.22,275l-.82,2.09h.46a.51.51,0,0,1,.5.47Z" style="fill:#263238;clip-path:url(#freepik--clip-path-2--inject-337)"></path></clipPath><clipPath id="freepik--clip-path-20--inject-337"><path d="M330.61,313.93c-7.72,0-17.07-2.49-25.16-6.24a58.33,58.33,0,0,1-11.19-6.64.53.53,0,0,1-.09-.71.52.52,0,0,1,.71-.09,57.31,57.31,0,0,0,11,6.54c13.54,6.26,30.61,9,37,2.19,8.07-8.61,13.69-43,14-45.17l-8.33-31.16c-1.88,2.77-7.52,11.18-9.12,14.42-.87,1.76-2.43,7.75-3.95,13.55-2.33,9-3.93,14.93-5,16.27a18,18,0,0,0-2.7,6.25.56.56,0,0,1,0,.12l-5.1,10.67a.5.5,0,0,1-.56.27L294.46,288a.54.54,0,0,1-.26-.16c-1.49-1.68-4-4.33-4.8-4.73-.54-.27-2.77-.11-4.4,0a12.22,12.22,0,0,1-3.67,0c-1.73-.7-4-1.19-4.39-.76-.06.07-.07.37.31,1,1.82,3.08,8.11,3.46,8.18,3.46a.48.48,0,0,1,.44.34c1.14,3.28,2.82,7,3.55,7.33a.5.5,0,0,1-.4.92c-1.39-.61-3.28-5.63-4-7.62-1.42-.12-6.8-.79-8.65-3.93q-.84-1.44-.21-2.19c1.09-1.26,5.07.3,5.52.49a16.87,16.87,0,0,0,3.23-.08c2.5-.18,4.19-.27,4.92.09,1.15.58,4.28,4.05,5,4.85L322,293.13l4.9-10.25a18.64,18.64,0,0,1,2.89-6.61c1-1.28,3-9,4.82-15.9,1.59-6.12,3.1-11.9,4-13.74,1.95-3.95,9.49-15,9.81-15.45a.5.5,0,0,1,.89.15l8.64,32.32a.5.5,0,0,1,0,.21c-.23,1.49-5.81,36.73-14.32,45.8C340.82,312.66,336.13,313.93,330.61,313.93Z" style="fill:#263238;clip-path:url(#freepik--clip-path-3--inject-337)"></path></clipPath><clipPath id="freepik--clip-path-21--inject-337"><path d="M340.71,304.08a1.25,1.25,0,0,1-1-.57c-3.13-4.13-18.14-13.54-18.3-13.63a.54.54,0,0,1-.23-.4c-.23-4.31,5.1-12.14,5.75-12.8.68-1.05,8.27-25.6,8.94-29.52s10.43-14.7,10.84-15.16a.52.52,0,0,1,.46-.15.51.51,0,0,1,.38.3c.06.16,6.28,15.73,6.28,28.34,0,11.41-8.33,42.05-12.69,43.52A1.53,1.53,0,0,1,340.71,304.08Zm-18.56-14.91c2,1.25,15.28,9.69,18.34,13.74.15.21.23.17.31.15,3.26-1.09,12-30,12-42.57,0-10.84-4.69-24-5.92-27.21-3.56,4-9.6,11.33-10.06,14.05-.55,3.28-8.29,29.12-9.2,30C327.09,277.92,322.16,285.15,322.15,289.17Z" style="fill:#263238;clip-path:url(#freepik--clip-path-4--inject-337)"></path></clipPath><clipPath id="freepik--clip-path-22--inject-337"><path d="M296.32,452.55a66.59,66.59,0,0,1-8.81-.47,22,22,0,0,1-4-.88.51.51,0,0,1-.34-.47v-1.88c-.82-2.52-.81-4.44,0-6,1.38-2.67,5-4.22,10.28-5.86A29.25,29.25,0,0,0,304,431.44a23.58,23.58,0,0,0,7.38-12,.49.49,0,0,1,.48-.36h0c1,0,23.95.51,27.53,5.58s3.17,26.34,3.15,27.25a.51.51,0,0,1-.5.49h-9.15c-5.85,0-8.81-1.56-9.56-2-1.43.3-9.86,2-15.8,2-1.4,0-3,0-4.78.08C300.79,452.5,298.56,452.55,296.32,452.55Zm-12.19-2.19a22.21,22.21,0,0,0,3.52.73,102.75,102.75,0,0,0,15.13.35c1.76,0,3.39-.08,4.8-.08,6.37,0,15.7-2,15.79-2a.48.48,0,0,1,.4.09s2.79,2,9.17,2h8.65c0-3.27.09-21.83-3-26.16-2.67-3.8-19.56-5-26.34-5.16a24.37,24.37,0,0,1-7.59,12.14,30.22,30.22,0,0,1-11,5.71c-4.93,1.52-8.46,3-9.68,5.36-.7,1.36-.68,3.06.07,5.34a.45.45,0,0,1,0,.16Z" style="fill:#263238;clip-path:url(#freepik--clip-path-5--inject-337)"></path></clipPath><clipPath id="freepik--clip-path-23--inject-337"><path d="M358.94,186.36l-.13,0a133.79,133.79,0,0,0-22.24-3.6c-2.55-.21-5-.32-7.37-.35a.5.5,0,0,1,0-1c2.36,0,4.86.15,7.43.35a137.6,137.6,0,0,1,21.79,3.47V172.63c-1-1.19-8.49-10-16.25-9.83l-3.19.06c-7.37.13-16.53.3-17.95,2.31-1.74,2.44-6.58,14.53-6.63,14.66a.5.5,0,1,1-.92-.38c.2-.5,4.93-12.32,6.73-14.86S330.61,162,339,161.86l3.19-.06c8.8-.17,16.83,9.91,17.16,10.34a.51.51,0,0,1,.11.31v13.41a.49.49,0,0,1-.2.4A.51.51,0,0,1,358.94,186.36Z" style="fill:#263238;clip-path:url(#freepik--clip-path-6--inject-337)"></path></clipPath><clipPath id="freepik--clip-path-24--inject-337"><path d="M329.21,182.39h-.06a72.91,72.91,0,0,0-14.87-.09h-.13c-4.2-.55-18-2.42-19.09-3.81a.63.63,0,0,1,0-.77c1.18-1.68,21.38-.62,34.32,3.7a.49.49,0,0,1,.33.58A.49.49,0,0,1,329.21,182.39Zm-32.76-4.22c2.3.82,10.31,2.16,17.77,3.13a64.54,64.54,0,0,1,10.24-.27C312.93,178.12,299.65,177.67,296.45,178.17Z" style="fill:#263238;clip-path:url(#freepik--clip-path-7--inject-337)"></path></clipPath><clipPath id="freepik--clip-path-25--inject-337"><path d="M387.12,341.71h-.42c-10.2-.26-22-6.75-32.41-12.49-7.12-3.91-13.27-7.3-17.37-7.8a8.15,8.15,0,0,1-5.82-3c-1.55-2.1-2-5.23-1.26-9.32,1.85-10.66,11-25,12.15-26.81A97.63,97.63,0,0,1,339.45,264c-.54-11.94,1.17-22.27,5.08-30.68,0-.9.7-5.94,10.72-13.75l11.17-7.31a.51.51,0,0,1,.53,0c.16.1,16,9.77,25.49,21.42,9.05,11.17,24,84.35,18.48,90.45C410.2,325.42,400.62,341.71,387.12,341.71ZM366.7,213.31l-10.87,7.11c-10.31,8.05-10.3,13-10.3,13a.46.46,0,0,1,0,.23c-3.87,8.29-5.57,18.49-5,30.32A95.62,95.62,0,0,0,343,282.24a.49.49,0,0,1-.06.41c-.1.15-10.2,15.48-12.13,26.61-.66,3.81-.3,6.68,1.08,8.55a7.11,7.11,0,0,0,5.14,2.61c4.29.53,10.52,4,17.73,7.93,10.31,5.68,22,12.11,32,12.36h.39c13.18,0,22.88-16.92,23-17.09a1,1,0,0,1,.08-.11c2.18-2.21.54-19.88-3.88-42-3.57-17.84-9.54-40.89-14.62-47.16C383,223.65,368.82,214.63,366.7,213.31Z" style="fill:#263238;clip-path:url(#freepik--clip-path-8--inject-337)"></path></clipPath><clipPath id="freepik--clip-path-26--inject-337"><path d="M323.68,433.2a93.3,93.3,0,0,1-12.1-1.23,55.47,55.47,0,0,0-7.76-.83.53.53,0,0,1-.39-.16l-5.6-6a.51.51,0,0,1-.09-.54l1.92-4.33c-1.36-2.17-6.43-10.36-6.43-11.81,0-.81-2.86-6.23-5.63-11-1.6-1.78-28.65-32.11-23.66-52.8,1.7-7,6.58-13,14.51-17.87,18.48-11.27,48.7-13.32,67.24-8.79l.15.06c.52.22,12.76,5.37,22.75,8.89,5.46,1.93,9.27,3,11,3.1,25.19,1.55,30.43-6.19,30.48-6.27a.49.49,0,0,1,.47-.23.52.52,0,0,1,.42.32c.14.37,3.28,9.15-6.74,27.89-9.62,18-79.88,19.72-88.65,19.87,7.62,15.49,19,38.26,20.22,39.32,1.63,1.32.6,5.88.23,7.31,1.16,1.36,7.32,8.81,6.54,13a.5.5,0,0,1-.47.41A152.7,152.7,0,0,0,326.88,433,18.29,18.29,0,0,1,323.68,433.2Zm-19.56-3.07a65.57,65.57,0,0,1,7.6.85c5.06.73,11.35,1.63,15,1a149.88,149.88,0,0,1,15-1.45c.27-4.19-6.47-11.92-6.54-12a.48.48,0,0,1-.1-.46c.62-2.27,1.09-5.79.17-6.53-1.62-1.31-18.88-36.38-20.84-40.37a.51.51,0,0,1,0-.48.49.49,0,0,1,.42-.24c.79,0,78.81-1.09,88.58-19.36h0c8-15,7.4-23.52,6.9-26.16-2,2.06-9.39,7.24-30.71,5.93-1.87-.11-5.68-1.17-11.31-3.16-10-3.52-22.28-8.69-22.79-8.91-17.95-4.39-48.47-2.32-66.49,8.66-7.69,4.69-12.42,10.49-14.05,17.26-4.91,20.35,23.18,51.61,23.46,51.92l.06.09c1,1.67,5.79,10.06,5.79,11.56,0,.82,3.27,6.5,6.41,11.5a.52.52,0,0,1,0,.47l-1.89,4.27,5.22,5.61Zm38,.88h0Z" style="fill:#263238;clip-path:url(#freepik--clip-path-9--inject-337)"></path></clipPath></defs><g id="freepik--background-simple--inject-337"><path d="M438.38,203c-18.19-20.12-48.67-22.37-72.37-35.56C325.22,144.73,309.4,93,272.3,64.72c-23.44-17.89-55.1-24.82-83.41-20.9-40.19,5.57-78,32.5-89.36,72a99.81,99.81,0,0,0-3.44,35.41c1.82,23.56,6.89,47.41,2.11,70.54-5.27,25.49-21.86,47-31.77,71.09-12.33,30-14,63.6-8.76,95.58,3.6,21.82,10.78,43.84,25.76,60.11,1.13,1.22,2.31,2.4,3.51,3.54H250.55c10.27-13.09,18.05-28.58,27.08-42.32,22.72-34.59,59.09-59.24,98.83-70.81,17.8-5.18,37.08-8.26,51.38-20.06,14.72-12.13,21.48-31.49,24.4-50.34C455.79,245.69,453.87,220.11,438.38,203Z" style="fill:#A1D336"></path><path d="M438.38,203c-18.19-20.12-48.67-22.37-72.37-35.56C325.22,144.73,309.4,93,272.3,64.72c-23.44-17.89-55.1-24.82-83.41-20.9-40.19,5.57-78,32.5-89.36,72a99.81,99.81,0,0,0-3.44,35.41c1.82,23.56,6.89,47.41,2.11,70.54-5.27,25.49-21.86,47-31.77,71.09-12.33,30-14,63.6-8.76,95.58,3.6,21.82,10.78,43.84,25.76,60.11,1.13,1.22,2.31,2.4,3.51,3.54H250.55c10.27-13.09,18.05-28.58,27.08-42.32,22.72-34.59,59.09-59.24,98.83-70.81,17.8-5.18,37.08-8.26,51.38-20.06,14.72-12.13,21.48-31.49,24.4-50.34C455.79,245.69,453.87,220.11,438.38,203Z" style="fill:#fff;opacity:0.7000000000000001"></path></g><g id="freepik--character-2--inject-337"><polygon points="336.37 381.84 336.37 452.05 342.79 452.05 342.79 382.61 336.37 381.84" style="fill:#263238"></polygon><polygon points="391.95 381.84 391.95 452.05 398.36 452.05 398.36 382.61 391.95 381.84" style="fill:#263238"></polygon><path d="M429.26,373.37c-.66,3.2-1.4,5.31-2.22,6.07-8.24,7.57-21.53,9-35.18,6.45s-50.05,1.37-53.77,2.28-12.68,5.72-14.73-4.52,11-20.37,11-20.37l46.4-1.08,20.91-.49c11.57-22.39,3.82-86.53,7.61-94.37s16.82-36.34,25.45-39.07C434.71,228.27,435.16,344.59,429.26,373.37Z" style="fill:#999"></path><path d="M330,390.59a6.9,6.9,0,0,1-3.53-.87c-1.79-1-3-3.05-3.58-6-2.08-10.42,10.62-20.44,11.16-20.86a.48.48,0,0,1,.3-.11l67-1.56c7.16-14.25,6.71-45.08,6.38-67.64-.19-13.13-.34-23.5,1.09-26.46.29-.6.64-1.32,1-2.15,5-10.35,16.54-34.59,24.72-37.18a.51.51,0,0,1,.65.48c0,1.16.38,116.7-5.46,145.2h0c-.71,3.45-1.49,5.52-2.37,6.34-7.73,7.1-20.37,9.43-35.61,6.57-13.42-2.5-49.42,1.26-53.56,2.28-.53.12-1.17.33-1.91.58A21.21,21.21,0,0,1,330,390.59Zm4.54-26.81c-1.33,1.07-12.52,10.5-10.67,19.77.53,2.63,1.57,4.41,3.1,5.31,2.63,1.53,6.33.31,9-.57.76-.25,1.41-.47,2-.61,4.18-1,40.45-4.81,54-2.28,14.93,2.8,27.26.55,34.75-6.33.49-.45,1.25-1.83,2.07-5.8h0c5.58-27.22,5.47-134.36,5.44-144.27-7.76,3.56-19.12,27.31-23.47,36.41l-1,2.15c-1.33,2.75-1.17,13.53-1,26,.33,22.8.79,54-6.63,68.37a.49.49,0,0,1-.43.27Zm94.74,9.59h0Z" style="fill:#263238"></path><path d="M435.78,370.46c-.66,3.2-4.4,7.47-5.22,8.23-8.24,7.57-25.05,9.76-38.7,7.2s-50.05,1.37-53.77,2.28-12.68,5.72-14.73-4.52,11-20.37,11-20.37l46.4-1.08c6.77,1.45,11.12,2.46,11.12,2.46Z" style="fill:#263238"></path><path d="M345.37,385.53v66.52h8.31V380l-4.86,1.17A4.5,4.5,0,0,0,345.37,385.53Z" style="fill:#757575"></path><path d="M353.68,452.55h-8.31a.5.5,0,0,1-.5-.5V385.53a5,5,0,0,1,3.83-4.86l4.86-1.17a.51.51,0,0,1,.43.1.49.49,0,0,1,.19.39v72.06A.5.5,0,0,1,353.68,452.55Zm-7.81-1h7.31V380.62l-4.24,1a4,4,0,0,0-3.07,3.88Z" style="fill:#263238"></path><path d="M414.37,380v72.06h8.31V382A15.44,15.44,0,0,1,414.37,380Z" style="fill:#757575"></path><path d="M422.68,452.55h-8.31a.5.5,0,0,1-.5-.5V380a.5.5,0,0,1,.25-.43.5.5,0,0,1,.5,0,15.06,15.06,0,0,0,8,1.93.5.5,0,0,1,.55.5v70.06A.5.5,0,0,1,422.68,452.55Zm-7.81-1h7.31v-69a16.09,16.09,0,0,1-7.31-1.68Z" style="fill:#263238"></path><path d="M308.09,324.28s-44.68,7.48-53,23.47S275.89,403,277.85,407a37.33,37.33,0,0,1,2.67,9.89s3.65,2.84,3.29,5.37-1.51,7.11-1.51,7.11l5.3,7.28s-9,6.2-16.08,7-4,7.82-4,7.82H309s8.71-41.29,6.34-48.85-24.79-53-24.79-53Z" style="fill:#263238"></path><path d="M363.75,214c-2,.81-17.87,20-17.87,20a13.94,13.94,0,0,0-2-6.3,4,4,0,0,0-1.64-1.53c-2.56-1.39-6.64-.94-7.63-.8l-.23,0c3.17-14.44,21.27-29.68,21.49-23.58S363.75,214,363.75,214Z" style="fill:#fff"></path><path d="M345.88,234.53a.51.51,0,0,1-.17,0,.5.5,0,0,1-.33-.47,13.58,13.58,0,0,0-2-6.05,3.51,3.51,0,0,0-1.45-1.34c-2.47-1.34-6.53-.86-7.32-.74l-.24,0a.53.53,0,0,1-.43-.16.52.52,0,0,1-.12-.45c2.73-12.45,16.56-25.7,20.92-25.34a1.7,1.7,0,0,1,1.56,1.85c.22,5.8,7.65,11.71,7.73,11.77a.49.49,0,0,1-.12.85c-1.4.56-11.58,12.5-17.67,19.9A.5.5,0,0,1,345.88,234.53Zm-8.64-9.81a11.38,11.38,0,0,1,5.2,1,4.56,4.56,0,0,1,1.83,1.72,16.19,16.19,0,0,1,2,5.31C349.4,229,359.8,216.52,362.92,214c-1.76-1.51-7.39-6.7-7.59-12.09,0-.74-.33-.87-.65-.9-3.5-.3-16.63,11.7-19.69,23.87C335.51,224.79,336.31,224.72,337.24,224.72Z" style="fill:#263238"></path><path d="M342.2,226.2c-2.56-1.39-6.64-.94-7.63-.8a26.24,26.24,0,0,1,.91-2.91l9.76-3.29S345.78,222.4,342.2,226.2Z" style="fill:#263238"></path><path d="M295.81,289.45v11.07s-3.16,2.5-4.22,2.63c-.22,0-1,.05-2,.05-3.86,0-11.78-.05-11.78-.05s-6-15.39-4.81-15.8,14.06-3.4,16.62-2.92a6.51,6.51,0,0,1,2.56,1.37A26.84,26.84,0,0,1,295.81,289.45Z" style="fill:#fff"></path><path d="M287.16,303.71c-4,0-9.29-.06-9.36-.06a.51.51,0,0,1-.46-.32c-1.32-3.39-5.59-14.59-4.9-16.09a.74.74,0,0,1,.4-.36c1.23-.44,14.22-3.44,16.87-2.94a6.79,6.79,0,0,1,2.78,1.47,26.58,26.58,0,0,1,3.71,3.73.51.51,0,0,1,.11.31v11.07a.49.49,0,0,1-.19.39c-.55.43-3.33,2.6-4.47,2.74-.37.05-1.67.05-2.06.05Zm-9-1.06c1.56,0,8.08.08,11.43.05,1.1,0,1.78,0,1.94-.05a15.09,15.09,0,0,0,3.79-2.37V289.63a26.75,26.75,0,0,0-3.44-3.44,6.15,6.15,0,0,0-2.34-1.27c-2.26-.41-14.21,2.25-16.19,2.85C273.24,289.08,275.64,296.18,278.15,302.65Zm-5-14.83Z" style="fill:#263238"></path><g style="clip-path:url(#freepik--clip-path-18--inject-337)"><path d="M292.18,285.8c-.91,3.55-1.66,6.52-1.66,6.52a6.35,6.35,0,0,0-2.36,5.14,15.06,15.06,0,0,0,1.43,5.74c-3.86,0-11.78-.05-11.78-.05s-6-15.39-4.81-15.8,14.06-3.4,16.62-2.92A6.51,6.51,0,0,1,292.18,285.8Z" style="fill-opacity:0.7000000000000001;opacity:0.30000000000000004"></path></g><polygon points="277.81 275.26 278.74 267.09 283.22 263.86 284.54 265.37 280.78 268.08 279.86 275.59 277.81 275.26" style="fill:#fff"></polygon><path d="M279.86,276.09h-.08l-2-.33a.51.51,0,0,1-.41-.55l.92-8.18a.49.49,0,0,1,.2-.35l4.49-3.23a.5.5,0,0,1,.67.08l1.32,1.52a.51.51,0,0,1,.12.38.53.53,0,0,1-.21.35l-3.58,2.58-.9,7.29a.46.46,0,0,1-.19.34A.49.49,0,0,1,279.86,276.09Zm-1.5-1.24,1.06.17.86-7a.53.53,0,0,1,.21-.35l3.31-2.38-.66-.76-3.93,2.83Z" style="fill:#263238"></path><path d="M290.8,277.31v3H289L287.91,286l-3.64,18.82a35.79,35.79,0,0,1-14.77-1.18l-.09-1.49-1.55-24.55h-1.19l1.19-3A36.65,36.65,0,0,1,290.8,277.31Z" style="fill:#A1D336"></path><path d="M279.68,305.56a33.37,33.37,0,0,1-10.35-1.47.5.5,0,0,1-.33-.44l-.09-1.49-1.52-24.08h-.72a.51.51,0,0,1-.47-.68l1.19-3a.52.52,0,0,1,.38-.31A37.6,37.6,0,0,1,291,276.87a.51.51,0,0,1,.26.44v3a.5.5,0,0,1-.5.5h-1.37l-4.67,24.12a.51.51,0,0,1-.43.41A43.15,43.15,0,0,1,279.68,305.56Zm-9.7-2.31a36.6,36.6,0,0,0,13.87,1.09l4.68-24.17a.49.49,0,0,1,.49-.4h1.28v-2.15A36.78,36.78,0,0,0,268.22,275l-.82,2.09h.46a.51.51,0,0,1,.5.47Z" style="fill:#263238"></path><g style="clip-path:url(#freepik--clip-path-19--inject-337)"><path d="M290.8,277.31v3H289s-5.37-3-10.35-3-10.81.34-10.81.34h-1.19l1.19-3A36.65,36.65,0,0,1,290.8,277.31Z" style="fill-opacity:0.7000000000000001;opacity:0.30000000000000004"></path><path d="M287.91,286l-3.64,18.82a35.79,35.79,0,0,1-14.77-1.18l-.09-1.49a20.49,20.49,0,0,1,13.06.74l1.86-11.47s-8.81-4.7-7.51-7.76C277.85,281.23,285,284.49,287.91,286Z" style="fill-opacity:0.7000000000000001;opacity:0.30000000000000004"></path></g><path d="M288.17,280.12a.55.55,0,0,1-.25-.07c-6.05-3.38-18.58-2.39-18.7-2.38a.51.51,0,0,1-.54-.45.49.49,0,0,1,.45-.54c.53-.05,12.95-1,19.28,2.5a.49.49,0,0,1,.19.68A.51.51,0,0,1,288.17,280.12Z" style="fill:#263238"></path><path d="M289.22,295c-1.38-.6-3.82-7.63-3.82-7.63s-6.6-.35-8.58-3.71,3.7-1.39,4.69-1,6.92-.6,8.11,0,4.95,4.85,4.95,4.85l19.48,4.37,8.21,1.84,5.1-10.67a18.4,18.4,0,0,1,2.8-6.46c2-2.5,6.93-25.78,8.89-29.73s9.77-15.39,9.77-15.39l8.64,32.32s-5.69,36.48-14.19,45.54c-6.54,7-23.84,4.29-37.61-2.08a57.61,57.61,0,0,1-11.09-6.59" style="fill:#fff"></path><path d="M330.61,313.93c-7.72,0-17.07-2.49-25.16-6.24a58.33,58.33,0,0,1-11.19-6.64.53.53,0,0,1-.09-.71.52.52,0,0,1,.71-.09,57.31,57.31,0,0,0,11,6.54c13.54,6.26,30.61,9,37,2.19,8.07-8.61,13.69-43,14-45.17l-8.33-31.16c-1.88,2.77-7.52,11.18-9.12,14.42-.87,1.76-2.43,7.75-3.95,13.55-2.33,9-3.93,14.93-5,16.27a18,18,0,0,0-2.7,6.25.56.56,0,0,1,0,.12l-5.1,10.67a.5.5,0,0,1-.56.27L294.46,288a.54.54,0,0,1-.26-.16c-1.49-1.68-4-4.33-4.8-4.73-.54-.27-2.77-.11-4.4,0a12.22,12.22,0,0,1-3.67,0c-1.73-.7-4-1.19-4.39-.76-.06.07-.07.37.31,1,1.82,3.08,8.11,3.46,8.18,3.46a.48.48,0,0,1,.44.34c1.14,3.28,2.82,7,3.55,7.33a.5.5,0,0,1-.4.92c-1.39-.61-3.28-5.63-4-7.62-1.42-.12-6.8-.79-8.65-3.93q-.84-1.44-.21-2.19c1.09-1.26,5.07.3,5.52.49a16.87,16.87,0,0,0,3.23-.08c2.5-.18,4.19-.27,4.92.09,1.15.58,4.28,4.05,5,4.85L322,293.13l4.9-10.25a18.64,18.64,0,0,1,2.89-6.61c1-1.28,3-9,4.82-15.9,1.59-6.12,3.1-11.9,4-13.74,1.95-3.95,9.49-15,9.81-15.45a.5.5,0,0,1,.89.15l8.64,32.32a.5.5,0,0,1,0,.21c-.23,1.49-5.81,36.73-14.32,45.8C340.82,312.66,336.13,313.93,330.61,313.93Z" style="fill:#263238"></path><g style="clip-path:url(#freepik--clip-path-20--inject-337)"><path d="M357.46,263.78s-5.69,36.48-14.19,45.54c-6.54,7-23.84,4.29-37.61-2.08a20.3,20.3,0,0,0,8.39-15.37l8.21,1.84,5.1-10.67a18.4,18.4,0,0,1,2.8-6.46c2-2.5,6.93-25.78,8.89-29.73s9.77-15.39,9.77-15.39Z" style="fill-opacity:0.7000000000000001;opacity:0.30000000000000004"></path></g><path d="M347.06,232.34s-10.09,11.14-10.72,14.9-8.4,29.11-9.07,29.79-5.83,8.33-5.61,12.42c0,0,15.21,9.5,18.43,13.76s13.22-30.06,13.22-42.72S347.06,232.34,347.06,232.34Z" style="fill:#A1D336"></path><path d="M340.71,304.08a1.25,1.25,0,0,1-1-.57c-3.13-4.13-18.14-13.54-18.3-13.63a.54.54,0,0,1-.23-.4c-.23-4.31,5.1-12.14,5.75-12.8.68-1.05,8.27-25.6,8.94-29.52s10.43-14.7,10.84-15.16a.52.52,0,0,1,.46-.15.51.51,0,0,1,.38.3c.06.16,6.28,15.73,6.28,28.34,0,11.41-8.33,42.05-12.69,43.52A1.53,1.53,0,0,1,340.71,304.08Zm-18.56-14.91c2,1.25,15.28,9.69,18.34,13.74.15.21.23.17.31.15,3.26-1.09,12-30,12-42.57,0-10.84-4.69-24-5.92-27.21-3.56,4-9.6,11.33-10.06,14.05-.55,3.28-8.29,29.12-9.2,30C327.09,277.92,322.16,285.15,322.15,289.17Z" style="fill:#263238"></path><g style="clip-path:url(#freepik--clip-path-21--inject-337)"><path d="M347.06,232.34s-10.09,11.14-10.72,14.9-8.4,29.11-9.07,29.79-5.83,8.33-5.61,12.42c0,0,15.21,9.5,18.43,13.76s13.22-30.06,13.22-42.72S347.06,232.34,347.06,232.34Z" style="fill-opacity:0.7000000000000001;opacity:0.30000000000000004"></path></g><path d="M342.45,273a.5.5,0,0,1-.41-.22c-3.28-4.71-4-12.55-4.07-12.88a.5.5,0,1,1,1-.09c0,.07.77,7.91,3.89,12.4a.51.51,0,0,1-.12.7A.52.52,0,0,1,342.45,273Z" style="fill:#263238"></path><path d="M328.74,302.75a.51.51,0,0,1-.48-.36c0-.05-1.68-5.66-6.24-8.24a.5.5,0,1,1,.49-.87c4.92,2.78,6.64,8.59,6.71,8.84a.48.48,0,0,1-.34.61A.32.32,0,0,1,328.74,302.75Z" style="fill:#263238"></path><path d="M342.09,451.88h-9.15c-6.66,0-9.46-2.06-9.46-2.06s-9.41,2-15.9,2c-5.26,0-13.75.59-20-.27a23.46,23.46,0,0,1-3.95-.86v-2c-2.08-6.33,1.19-8.65,9.93-11.34a29.92,29.92,0,0,0,10.81-5.61,24.16,24.16,0,0,0,7.53-12.26s23.66.45,27.13,5.37S342.09,451.88,342.09,451.88Z" style="fill:#fff"></path><path d="M296.32,452.55a66.59,66.59,0,0,1-8.81-.47,22,22,0,0,1-4-.88.51.51,0,0,1-.34-.47v-1.88c-.82-2.52-.81-4.44,0-6,1.38-2.67,5-4.22,10.28-5.86A29.25,29.25,0,0,0,304,431.44a23.58,23.58,0,0,0,7.38-12,.49.49,0,0,1,.48-.36h0c1,0,23.95.51,27.53,5.58s3.17,26.34,3.15,27.25a.51.51,0,0,1-.5.49h-9.15c-5.85,0-8.81-1.56-9.56-2-1.43.3-9.86,2-15.8,2-1.4,0-3,0-4.78.08C300.79,452.5,298.56,452.55,296.32,452.55Zm-12.19-2.19a22.21,22.21,0,0,0,3.52.73,102.75,102.75,0,0,0,15.13.35c1.76,0,3.39-.08,4.8-.08,6.37,0,15.7-2,15.79-2a.48.48,0,0,1,.4.09s2.79,2,9.17,2h8.65c0-3.27.09-21.83-3-26.16-2.67-3.8-19.56-5-26.34-5.16a24.37,24.37,0,0,1-7.59,12.14,30.22,30.22,0,0,1-11,5.71c-4.93,1.52-8.46,3-9.68,5.36-.7,1.36-.68,3.06.07,5.34a.45.45,0,0,1,0,.16Z" style="fill:#263238"></path><g style="clip-path:url(#freepik--clip-path-22--inject-337)"><path d="M342.09,451.88h-9.15c-6.66,0-9.46-2.06-9.46-2.06s-9.41,2-15.9,2c-5.26,0-13.75.59-20-.27l1.24-2.47c.32-4.38,5.51-3.45,14.8-3.63s14.21-3.85,14.21-3.85l6.94,3.35s10.07,1.12,12.06,0,0-9.52,0-9.52-17,2.81-18.56,2.36c-1.15-.33-9.58-4.08-13.9-6a24.16,24.16,0,0,0,7.53-12.26s23.66.45,27.13,5.37S342.09,451.88,342.09,451.88Z" style="fill-opacity:0.7000000000000001;opacity:0.2"></path></g><path d="M300,450c-6.61,0-16.27-.74-16.38-.75a.5.5,0,0,1-.46-.54.5.5,0,0,1,.54-.46c.13,0,12.82,1,19,.7s16.68-2.5,16.78-2.53a.5.5,0,0,1,.59.39.49.49,0,0,1-.38.59c-.11,0-10.71,2.25-16.94,2.55C301.9,450,301,450,300,450Z" style="fill:#263238"></path><path d="M341.13,450.05c-5.68,0-16-2.52-16.48-2.63a.5.5,0,1,1,.24-1c.11,0,12,2.92,17.18,2.58a.48.48,0,0,1,.53.46.5.5,0,0,1-.47.53C341.82,450,341.48,450.05,341.13,450.05Z" style="fill:#263238"></path><path d="M310,436a2.09,2.09,0,0,1-1.52-.63c-1.22-1.22-4.45-1.36-5.59-1.3a.51.51,0,0,1-.52-.48.49.49,0,0,1,.47-.52c.19,0,4.57-.18,6.35,1.59,1.24,1.25,4-1.42,4.07-1.45a.5.5,0,0,1,.7.71C313.82,434,311.8,436,310,436Z" style="fill:#263238"></path><path d="M303.52,439.44h-.06a1.3,1.3,0,0,1-1-.57c-.76-1.09-3.15-1.73-4-1.89a.5.5,0,1,1,.18-1c.14,0,3.49.65,4.64,2.29a.3.3,0,0,0,.26.15c.65,0,1.81-1,2.64-1.88a7.52,7.52,0,0,0-3.48-1.55.5.5,0,0,1-.47-.53.47.47,0,0,1,.52-.47c2.12.11,4.38,2,4.48,2.1a.5.5,0,0,1,.06.7C306.88,437.25,305,439.44,303.52,439.44Z" style="fill:#263238"></path><path d="M359.16,203.14c3.93-11.85.39-26-16.82-35.2-11.19-6-31.34,10.94-28.61,21.53s7.35,14.07,7.35,14.07-5.11,7.62-4,10c.49,1,3.6,1.08,3.6,1.08a12.16,12.16,0,0,0,1.63,4.57l1.39-.43s2.61,10.12,8.69,8.91,14.73-6.47,14.32-11.36" style="fill:#fff"></path><path d="M331.38,228.23c-5,0-7.42-6.91-8-8.88l-.91.28a.49.49,0,0,1-.57-.22,13,13,0,0,1-1.63-4.35c-1.07-.05-3.12-.3-3.62-1.34-1.1-2.3,2.67-8.39,3.78-10.09-1.16-1.06-4.84-5-7.17-14-1.52-5.87,3.58-13,9.31-17.54s13.78-7.89,20-4.55c15.38,8.24,21.75,21.62,17.06,35.79a.51.51,0,0,1-.64.32.5.5,0,0,1-.31-.63c4.53-13.67-1.67-26.61-16.58-34.59-4.79-2.57-12.22-.82-18.93,4.45-5.47,4.29-10.37,11.06-9,16.5,2.64,10.26,7.12,13.77,7.16,13.8a.51.51,0,0,1,.12.68c-1.92,2.85-4.69,8-4,9.46.21.45,1.81.78,3.16.8a.5.5,0,0,1,.49.45,11.69,11.69,0,0,0,1.36,4l1-.31a.53.53,0,0,1,.39,0,.49.49,0,0,1,.24.31c0,.1,2.58,9.64,8.11,8.55,5.88-1.18,14.31-6.24,13.92-10.83a.5.5,0,0,1,1-.09c.44,5.3-8.57,10.67-14.72,11.9A6.33,6.33,0,0,1,331.38,228.23Z" style="fill:#263238"></path><path d="M320,199.07a.49.49,0,0,1-.41-.21.49.49,0,0,1,.12-.69,7.79,7.79,0,0,1,7.28-.82.5.5,0,0,1,.25.66.5.5,0,0,1-.66.25c-3.18-1.43-6.26.7-6.29.72A.52.52,0,0,1,320,199.07Z" style="fill:#263238"></path><path d="M326.27,201.39c.5,1,.51,2,0,2.27s-1.31-.35-1.82-1.35-.51-2,0-2.27S325.76,200.39,326.27,201.39Z" style="fill:#263238"></path><path d="M323.36,219.41a.48.48,0,0,1-.44-.27.5.5,0,0,1,.21-.67,9,9,0,0,0,3.59-3.41.51.51,0,0,1,.67-.25.5.5,0,0,1,.24.67,9.92,9.92,0,0,1-4,3.88A.46.46,0,0,1,323.36,219.41Z" style="fill:#263238"></path><path d="M310.85,185.57s-1.89,2.34-1.2,4.62,5,2.19,5,2.19-3-1.63-.87-2.91c0,0,1.49,3.56,4.8,2.81s4.77.49,4.77.49.88-2.11-.71-3.14c0,0,5.3-1.38,7.2,1.67s6.94,2.95,6.94,2.95l-.6-2.64c-.11-.5,5.52,3.62,6.55,5.13l1,1.5s4.11-3.37,6.79-1.54.42,10.35.42,10.35,8.07.26,9.93-2.25a8.83,8.83,0,0,0,1.48-5.73s1.26-.63,2.54,1.17c0,0,.54-3.2-1.86-4.63,0,0,2.72-1.53,2.76-2.91,0,0-2.89-.19-3.81-1.72s-.53-2.32-.53-2.32l2.4.1s.43-2.48-4.78-3.23-12.43-5.17-24.47-6.45S304.89,179.11,310.85,185.57Z" style="fill:#263238"></path><path d="M314,179.64s4.89-12.24,6.68-14.76,12.9-2.38,21.54-2.58,16.76,10.15,16.76,10.15v13.41a132.33,132.33,0,0,0-22.33-3.62c-2.38-.19-4.86-.32-7.4-.35" style="fill:#A1D336"></path><path d="M358.94,186.36l-.13,0a133.79,133.79,0,0,0-22.24-3.6c-2.55-.21-5-.32-7.37-.35a.5.5,0,0,1,0-1c2.36,0,4.86.15,7.43.35a137.6,137.6,0,0,1,21.79,3.47V172.63c-1-1.19-8.49-10-16.25-9.83l-3.19.06c-7.37.13-16.53.3-17.95,2.31-1.74,2.44-6.58,14.53-6.63,14.66a.5.5,0,1,1-.92-.38c.2-.5,4.93-12.32,6.73-14.86S330.61,162,339,161.86l3.19-.06c8.8-.17,16.83,9.91,17.16,10.34a.51.51,0,0,1,.11.31v13.41a.49.49,0,0,1-.2.4A.51.51,0,0,1,358.94,186.36Z" style="fill:#263238"></path><g style="clip-path:url(#freepik--clip-path-23--inject-337)"><path d="M358.94,172.45v13.41a132.33,132.33,0,0,0-22.33-3.62c.32-4.2,1-13.38,1-14.4,0-1.24-4.45-2.33-5-2.46a93.46,93.46,0,0,1,9.81,1.31c2.13.62,6.94,6.4,7.31,8.16s3.87-3.19,4.29-4S358.94,172.45,358.94,172.45Z" style="fill-opacity:0.7000000000000001;opacity:0.30000000000000004"></path></g><path d="M337.44,179.83h-.06a.51.51,0,0,1-.44-.56c0-.09,1.06-8.78.23-11.27-.56-1.68-6.44-2.63-10-2.83a.5.5,0,0,1-.47-.53.5.5,0,0,1,.53-.47c1,.06,10,.64,10.91,3.51.9,2.71-.14,11.34-.18,11.71A.51.51,0,0,1,337.44,179.83Z" style="fill:#263238"></path><path d="M314.22,181.8s-17.71-2.28-18.76-3.62,19.41-1.07,33.75,3.71A73.49,73.49,0,0,0,314.22,181.8Z" style="fill:#A1D336"></path><path d="M329.21,182.39h-.06a72.91,72.91,0,0,0-14.87-.09h-.13c-4.2-.55-18-2.42-19.09-3.81a.63.63,0,0,1,0-.77c1.18-1.68,21.38-.62,34.32,3.7a.49.49,0,0,1,.33.58A.49.49,0,0,1,329.21,182.39Zm-32.76-4.22c2.3.82,10.31,2.16,17.77,3.13a64.54,64.54,0,0,1,10.24-.27C312.93,178.12,299.65,177.67,296.45,178.17Z" style="fill:#263238"></path><g style="clip-path:url(#freepik--clip-path-24--inject-337)"><path d="M314.22,181.8s-17.71-2.28-18.76-3.62,19.41-1.07,33.75,3.71A73.49,73.49,0,0,0,314.22,181.8Z" style="fill-opacity:0.7000000000000001;opacity:0.30000000000000004"></path></g><path d="M341.27,197.4s.21-6,4.3-5.6,6.05.6,6.64,4-.47,6.4-2.43,9.28-2.26,3.81-3.48,3" style="fill:#fff"></path><path d="M347,208.86a1.89,1.89,0,0,1-1-.34.5.5,0,0,1,.54-.85c.54.35.61.4,2-1.71l.8-1.2c2.12-3.11,2.86-5.94,2.35-8.9s-2.19-3.17-6.2-3.56a2.61,2.61,0,0,0-2.06.61c-1.56,1.38-1.69,4.48-1.69,4.51a.5.5,0,0,1-1,0c0-.15.14-3.57,2-5.23a3.66,3.66,0,0,1,2.82-.86c4,.39,6.42.63,7.08,4.39.56,3.19-.26,6.34-2.5,9.64l-.79,1.18C348.45,208,347.85,208.86,347,208.86Z" style="fill:#263238"></path><path d="M410.52,323.86s-10,17.7-23.81,17.35c-17.09-.43-39.52-19-49.73-20.29-6.42-.79-7.71-5.69-6.65-11.74,2-11.37,12.2-26.81,12.2-26.81A95.12,95.12,0,0,1,340,264c-.42-9.26.43-20.61,5.08-30.55,0,0-.24-5.07,10.53-13.47l11.13-7.28s15.86,9.59,25.36,21.31S415.63,318.67,410.52,323.86Z" style="fill:#fff"></path><path d="M387.12,341.71h-.42c-10.2-.26-22-6.75-32.41-12.49-7.12-3.91-13.27-7.3-17.37-7.8a8.15,8.15,0,0,1-5.82-3c-1.55-2.1-2-5.23-1.26-9.32,1.85-10.66,11-25,12.15-26.81A97.63,97.63,0,0,1,339.45,264c-.54-11.94,1.17-22.27,5.08-30.68,0-.9.7-5.94,10.72-13.75l11.17-7.31a.51.51,0,0,1,.53,0c.16.1,16,9.77,25.49,21.42,9.05,11.17,24,84.35,18.48,90.45C410.2,325.42,400.62,341.71,387.12,341.71ZM366.7,213.31l-10.87,7.11c-10.31,8.05-10.3,13-10.3,13a.46.46,0,0,1,0,.23c-3.87,8.29-5.57,18.49-5,30.32A95.62,95.62,0,0,0,343,282.24a.49.49,0,0,1-.06.41c-.1.15-10.2,15.48-12.13,26.61-.66,3.81-.3,6.68,1.08,8.55a7.11,7.11,0,0,0,5.14,2.61c4.29.53,10.52,4,17.73,7.93,10.31,5.68,22,12.11,32,12.36h.39c13.18,0,22.88-16.92,23-17.09a1,1,0,0,1,.08-.11c2.18-2.21.54-19.88-3.88-42-3.57-17.84-9.54-40.89-14.62-47.16C383,223.65,368.82,214.63,366.7,213.31Z" style="fill:#263238"></path><g style="clip-path:url(#freepik--clip-path-25--inject-337)"><path d="M388.69,286.58c-1.38,4-11.06,4.11-11.06,4.11,2.38.94,6.12,14.09,3.84,10.73s-6.82-6.28-6.82-6.28-7.91,12-19.19,15.18c-9.09,2.55-20.91,0-25.13-1.14,2-11.37,12.2-26.81,12.2-26.81A95.12,95.12,0,0,1,340,264c1.61,1.41,4.28,4.37,5.32,1,1.28-4.15,7.29-20.1,8-20.77,8.13-7.32,25.69-10.28,32.28-2.37s-3.43,28.28-2.75,28.88,5.65-3.76,6.64.25-7.38,13.37-7.38,13.37C385.75,285.52,390.08,282.63,388.69,286.58Z" style="fill-opacity:0.7000000000000001;opacity:0.2"></path></g><path d="M297,267.34s-4.33-7.13-3.41-9.24c0,0-2.1-6.57-.13-6.78s7.38,8,7.38,8" style="fill:#fff"></path><path d="M297,267.84a.49.49,0,0,1-.42-.24c-.45-.74-4.24-7.07-3.52-9.51-.36-1.16-1.53-5.24-.58-6.69a1.23,1.23,0,0,1,.93-.58c2.08-.22,6.54,6.25,7.85,8.23a.5.5,0,1,1-.84.55c-2.52-3.83-5.88-7.87-6.91-7.78a.21.21,0,0,0-.19.13c-.55.83.11,4,.75,6a.53.53,0,0,1,0,.35c-.6,1.36,1.76,6.11,3.38,8.78a.51.51,0,0,1-.43.76Z" style="fill:#263238"></path><rect x="290.01" y="233.09" width="3.43" height="28.22" rx="0.92" transform="translate(-89.35 278.7) rotate(-45)" style="fill:#263238"></rect><path d="M295.93,262.18a10.47,10.47,0,0,0,1.58,6.07c2.37,3.17,12,6.33,12,6.33l7.39-8.9s-5.93-10.88-8.31-13.25-7.45-1.72-9.23-4.09-3.53,1.82.28,4.34,1,6.28-1.53,5.48" style="fill:#fff"></path><path d="M309.5,275.08l-.15,0c-.4-.13-9.81-3.25-12.24-6.51a11.08,11.08,0,0,1-1.68-6.38.53.53,0,0,1,.51-.49.5.5,0,0,1,.49.51,10,10,0,0,0,1.48,5.76c2,2.69,9.75,5.47,11.43,6.05l7-8.38c-1-1.75-6-10.76-8.06-12.84-1.07-1.06-2.81-1.48-4.5-1.88-1.85-.45-3.76-.91-4.78-2.26-.31-.42-.58-.53-.7-.5s-.3.24-.36.61a3.8,3.8,0,0,0,2,3.51c2.24,1.48,2.4,3.36,1.8,4.63a3.17,3.17,0,0,1-3.75,1.75.5.5,0,0,1-.33-.62.49.49,0,0,1,.63-.33,2.21,2.21,0,0,0,2.55-1.23c.54-1.15,0-2.41-1.45-3.36-2.14-1.42-2.66-3.32-2.45-4.52a1.63,1.63,0,0,1,1.12-1.41c.34-.08,1-.08,1.73.87s2.46,1.46,4.21,1.88,3.71.89,5,2.16c2.39,2.39,8.14,12.92,8.39,13.36a.48.48,0,0,1-.06.56l-7.38,8.9A.5.5,0,0,1,309.5,275.08Z" style="fill:#263238"></path><path d="M307.59,273.2c15.76,24.33,30.37,31.55,37,33.43,16,4.55,24-14.77,24-14.77l-18.46-17.41-3.3,5.38S340.71,273,315,263.37" style="fill:#fff"></path><path d="M349.34,307.81a17.88,17.88,0,0,1-4.9-.7c-5.7-1.62-20.75-8.14-37.27-33.64a.5.5,0,0,1,.15-.69.49.49,0,0,1,.69.15c16.33,25.21,31.11,31.63,36.71,33.21C359,310.21,366.87,294.42,368,292l-17.75-16.74-3,4.85a.53.53,0,0,1-.39.24.49.49,0,0,1-.41-.17c-.07-.07-6.4-6.92-31.58-16.32a.5.5,0,1,1,.35-.93c22,8.22,29.67,14.4,31.5,16.12l3-4.84a.48.48,0,0,1,.36-.24.47.47,0,0,1,.4.14l18.46,17.4a.5.5,0,0,1,.12.56C369,292.22,362.37,307.81,349.34,307.81Z" style="fill:#263238"></path><path d="M349,288.25a.49.49,0,0,1-.49-.47s-.27-4.83-2.15-7.67a.5.5,0,1,1,.84-.56c2,3.08,2.29,8,2.3,8.18a.49.49,0,0,1-.47.52Z" style="fill:#263238"></path><path d="M382.84,262.38a.5.5,0,0,1-.34-.13.51.51,0,0,1,0-.71c5-5.43,6.5-17.23,6.52-17.35a.5.5,0,0,1,1,.13c-.06.49-1.59,12.23-6.77,17.9A.49.49,0,0,1,382.84,262.38Z" style="fill:#263238"></path><path d="M383.73,324.79a70.19,70.19,0,0,1-9.75-.62c-10.1-1.48-27.29-6.6-27.46-6.65a.49.49,0,0,1-.34-.62.51.51,0,0,1,.62-.34c.17.06,17.29,5.15,27.33,6.61,10.32,1.51,23.78-.18,24.72-.87a.5.5,0,0,1,.7,0,.5.5,0,0,1,0,.71C398.67,323.8,391.49,324.79,383.73,324.79Z" style="fill:#263238"></path><path d="M372.34,288.25a.5.5,0,0,1-.24-.93c9.06-5,19.24-19.67,19.35-19.81a.49.49,0,0,1,.69-.13.5.5,0,0,1,.13.7c-.42.6-10.42,15-19.68,20.11A.54.54,0,0,1,372.34,288.25Z" style="fill:#263238"></path><path d="M381.47,299.15a.49.49,0,0,1-.42-.24c-4.26-7-10.24-7.72-10.3-7.72a.5.5,0,0,1,.1-1c.27,0,6.52.75,11,8.2a.51.51,0,0,1-.17.69A.59.59,0,0,1,381.47,299.15Z" style="fill:#263238"></path><path d="M385.2,238.85c3.72,20-15,53-15,53s-1.05,7.38-4.38,0-19-12-19-12c-2.24-3.47,0-4.85,0-4.85,0-9.3,3.28-15.37,2.23-19.73-2.37-9.76-1.7-21.57,2.26-29.79a30.88,30.88,0,0,0-6.28,8s-2.72-5.07,10.23-15.46c11.76-9.43,14.12-3.57,14.12-3.57S381.51,218.93,385.2,238.85Z" style="fill:#A1D336"></path><path d="M368.39,295.64c-1,0-2-1.15-3.07-3.58-3.19-7.09-18.49-11.7-18.64-11.75a.46.46,0,0,1-.28-.21,5,5,0,0,1-1-3.8,3,3,0,0,1,.91-1.57,54.68,54.68,0,0,1,1.52-11.57c.68-3.19,1.22-5.72.72-7.79-2.25-9.27-1.72-19.83,1.27-27.73a29.17,29.17,0,0,0-4.36,6.06.48.48,0,0,1-.44.27h0a.51.51,0,0,1-.44-.26c-.12-.22-2.77-5.57,10.36-16.09,5.34-4.28,9.52-6.07,12.42-5.31a3.75,3.75,0,0,1,2.37,1.74c1.62.67,12.45,5.85,15.95,24.7h0c3.65,19.71-13.79,51-15.05,53.27-.12.75-.63,3.4-2.07,3.61Zm-21.25-16.23c1.85.56,15.87,5.08,19.1,12.24,1.32,2.94,2.06,3,2.19,3,.5-.07,1.05-1.56,1.23-2.85a.55.55,0,0,1,.06-.18c.19-.33,18.63-33,15-52.67-3.6-19.41-15.39-24-15.5-24a.47.47,0,0,1-.29-.28,2.69,2.69,0,0,0-1.84-1.36c-1.77-.45-5.2.08-11.5,5.13-8.75,7-10.19,11.51-10.27,13.56a31.68,31.68,0,0,1,5.67-6.88.5.5,0,0,1,.78.6c-3.79,7.86-4.66,19.42-2.23,29.46.56,2.29,0,4.91-.71,8.23a52.83,52.83,0,0,0-1.5,11.61.49.49,0,0,1-.24.42C347,275.45,345.38,276.55,347.14,279.41Z" style="fill:#263238"></path><path d="M353.19,223.39a.5.5,0,0,1-.39-.18.5.5,0,0,1,.06-.7c9.24-7.81,16.07-8.88,16.76-8.51a.5.5,0,0,1-.42.91c-.7-.07-7.06,1.07-15.69,8.36A.49.49,0,0,1,353.19,223.39Z" style="fill:#263238"></path><path d="M355.46,231.5a.54.54,0,0,1-.33-.12.51.51,0,0,1-.05-.71c.14-.16,3.42-3.89,7.78-4.9,4.17-1,12.31-.68,16.43,4.25a.5.5,0,0,1-.07.7.49.49,0,0,1-.7-.06c-3.62-4.34-11.2-4.9-15.43-3.92-4,.94-7.22,4.55-7.25,4.59A.52.52,0,0,1,355.46,231.5Z" style="fill:#263238"></path><path d="M349.23,257h-.06a.5.5,0,0,1-.44-.56,36.36,36.36,0,0,0,.1-3.66c0-3,0-6.75.73-9.21l-.09.14a.5.5,0,0,1-.85-.54c1.22-1.92,1.64-1.92,2-1.76.52.25.41.88,0,2.19-.77,2.29-.77,6.11-.77,9.18a35.81,35.81,0,0,1-.11,3.78A.49.49,0,0,1,349.23,257Z" style="fill:#263238"></path><path d="M361.28,278.27a.45.45,0,0,1-.31-.11c-4.84-3.88-14-2.7-14.08-2.69a.5.5,0,0,1-.57-.43.51.51,0,0,1,.43-.56c.39-.05,9.68-1.25,14.85,2.9a.52.52,0,0,1,.07.71A.5.5,0,0,1,361.28,278.27Z" style="fill:#263238"></path><path d="M403.81,351.33c-10,18.74-89,19.62-89,19.62s19.12,38.92,20.7,40.2,0,7.05,0,7.05,7.41,8.44,6.6,12.81a153,153,0,0,0-15.3,1.46c-6.06,1.06-18.72-2-23-1.83L300,426.51l-1.75-1.89,2-4.57s-6.49-10.33-6.49-11.77S288,397,288,397s-28.61-31.53-23.58-52.38c6.2-25.7,55.23-32.62,81.14-26.29l.08,0c1.09.46,13.08,5.49,22.77,8.9,4.85,1.71,9.13,3,11.17,3.13,25.92,1.59,30.93-6.5,30.93-6.5S413.84,332.58,403.81,351.33Z" style="fill:#757575"></path><path d="M323.68,433.2a93.3,93.3,0,0,1-12.1-1.23,55.47,55.47,0,0,0-7.76-.83.53.53,0,0,1-.39-.16l-5.6-6a.51.51,0,0,1-.09-.54l1.92-4.33c-1.36-2.17-6.43-10.36-6.43-11.81,0-.81-2.86-6.23-5.63-11-1.6-1.78-28.65-32.11-23.66-52.8,1.7-7,6.58-13,14.51-17.87,18.48-11.27,48.7-13.32,67.24-8.79l.15.06c.52.22,12.76,5.37,22.75,8.89,5.46,1.93,9.27,3,11,3.1,25.19,1.55,30.43-6.19,30.48-6.27a.49.49,0,0,1,.47-.23.52.52,0,0,1,.42.32c.14.37,3.28,9.15-6.74,27.89-9.62,18-79.88,19.72-88.65,19.87,7.62,15.49,19,38.26,20.22,39.32,1.63,1.32.6,5.88.23,7.31,1.16,1.36,7.32,8.81,6.54,13a.5.5,0,0,1-.47.41A152.7,152.7,0,0,0,326.88,433,18.29,18.29,0,0,1,323.68,433.2Zm-19.56-3.07a65.57,65.57,0,0,1,7.6.85c5.06.73,11.35,1.63,15,1a149.88,149.88,0,0,1,15-1.45c.27-4.19-6.47-11.92-6.54-12a.48.48,0,0,1-.1-.46c.62-2.27,1.09-5.79.17-6.53-1.62-1.31-18.88-36.38-20.84-40.37a.51.51,0,0,1,0-.48.49.49,0,0,1,.42-.24c.79,0,78.81-1.09,88.58-19.36h0c8-15,7.4-23.52,6.9-26.16-2,2.06-9.39,7.24-30.71,5.93-1.87-.11-5.68-1.17-11.31-3.16-10-3.52-22.28-8.69-22.79-8.91-17.95-4.39-48.47-2.32-66.49,8.66-7.69,4.69-12.42,10.49-14.05,17.26-4.91,20.35,23.18,51.61,23.46,51.92l.06.09c1,1.67,5.79,10.06,5.79,11.56,0,.82,3.27,6.5,6.41,11.5a.52.52,0,0,1,0,.47l-1.89,4.27,5.22,5.61Zm38,.88h0Z" style="fill:#263238"></path><g style="clip-path:url(#freepik--clip-path-26--inject-337)"><path d="M403.81,351.33c-10,18.74-89,19.62-89,19.62s19.12,38.92,20.7,40.2,0,7.05,0,7.05,7.41,8.44,6.6,12.81a153,153,0,0,0-15.3,1.46c-6.06,1.06-18.72-2-23-1.83L300,426.51c4.69-1.21,17.91,2.32,19.91,2.65,2.37.4,17.58-3.3,17.58-3.3a52.83,52.83,0,0,1-10.07,0c-5.34-.55-9.1-5-7.51-5.09s12.06-5.45,12.85-9.4-4.55-5.12-8.5-5.12-14.24-.59-16.62-5.09,6.53-2,11.08-5.79,0-10.88-5.74-10.28-19.38-5.74-15.67-7.32S310,374.6,310,374.6s-12.87-.24-18.24-6.06,2.41-9.17,14.77-4.22,71.13-4.16,71.13-4.16-2.19-3.75-1.49-4.74,12.7,1.07,13.32,1.17c-.24-.22-2.89-2.77,2.4-7.3,5.54-4.75,6.33-16.62,6.33-16.62-6.24,2.94-7.72,1.25-7.9,1,.11.41,1.38,4.8,1.57,5.74s-6.93,0-15.72-7.32a43.2,43.2,0,0,0-7.72-4.85c4.85,1.71,9.13,3,11.17,3.13,25.92,1.59,30.93-6.5,30.93-6.5S413.84,332.58,403.81,351.33Z" style="fill-opacity:0.7000000000000001;opacity:0.2"></path></g><path d="M390.27,337.72a.39.39,0,0,1-.18,0c-.33-.13-8-3.24-12.79-7.25a.5.5,0,1,1,.65-.76c4.62,3.91,12.43,7.05,12.51,7.09a.5.5,0,0,1,.28.65A.51.51,0,0,1,390.27,337.72Z" style="fill:#263238"></path><path d="M301.35,372.11a11.77,11.77,0,0,1-4.23-.69,4,4,0,0,1-2.58-3.24,2.93,2.93,0,0,1,1.11-2.8,2.88,2.88,0,0,1,3.08.08c3.66,1.93,16.07,5,16.19,5a.5.5,0,0,1,.37.6.51.51,0,0,1-.61.37c-.51-.13-12.65-3.11-16.42-5.1a1.68,1.68,0,0,0-2.73,1.73,3,3,0,0,0,2,2.42c3.56,1.4,8.74,0,8.79,0a.5.5,0,0,1,.61.35.49.49,0,0,1-.35.61A21.49,21.49,0,0,1,301.35,372.11Z" style="fill:#263238"></path><path d="M300.22,420.54a.45.45,0,0,1-.27-.08.49.49,0,0,1-.15-.69c1.47-2.25,2-3.59,1.73-4.46s-1-1.32-2.82-2.1a.51.51,0,0,1-.26-.66.5.5,0,0,1,.66-.26c1.81.79,3,1.52,3.37,2.73s-.15,2.7-1.84,5.3A.52.52,0,0,1,300.22,420.54Z" style="fill:#263238"></path><path d="M306.5,403.39h-.11c-.61-.14-15.07-3.42-18.67-6a.5.5,0,1,1,.58-.81c3.44,2.46,18.16,5.8,18.31,5.83a.5.5,0,0,1-.11,1Z" style="fill:#263238"></path><path d="M325.39,423.83a2.64,2.64,0,0,1-1.45-.38.5.5,0,0,1,.54-.84c1.8,1.16,7.53-2.33,10.72-4.8a.5.5,0,0,1,.7.08.51.51,0,0,1-.09.71C335,419.2,329,423.83,325.39,423.83Z" style="fill:#263238"></path><path d="M322.43,420.54h-.14a.5.5,0,0,1-.34-.62s.88-3.3-.88-5.24l-.28-.31c-3.79-4.16-8.22-9.21-8.92-11.31a3.72,3.72,0,0,1,.35-3,2.39,2.39,0,0,0-.09-2.83c-.48-.69-1.39-1.89-2.45-3.29-3-3.94-7.1-9.35-7.71-11.31-.75-2.45-3.63-7.66-7.15-9.18-3.07-1.32-3-4.62-2.44-6.44a7.37,7.37,0,0,1-1.66-8.46c1.52-3.45,7-5.23,12.77-7.12a61.41,61.41,0,0,0,8-3c7-3.49,30.18-1.21,36.11-.25s20.37-1.84,22.84-4,8.1-8.59,8.15-8.65a.51.51,0,0,1,.71-.05.49.49,0,0,1,.05.7c-.23.26-5.57,6.38-8.25,8.75-2.89,2.56-17.7,5.24-23.66,4.28-5.63-.91-28.81-3.18-35.5.16a62.86,62.86,0,0,1-8.17,3.06c-5.33,1.74-10.83,3.53-12.17,6.57a6.34,6.34,0,0,0,1.64,7.52.52.52,0,0,1,.16.56c-.06.16-1.42,4.13,1.78,5.5,4.05,1.75,7,7.47,7.72,9.81.55,1.79,4.76,7.33,7.54,11,1.07,1.4,2,2.62,2.48,3.32a3.34,3.34,0,0,1,.19,3.81,2.79,2.79,0,0,0-.32,2.23c.72,2.17,6.73,8.78,8.71,10.95l.28.31c2.14,2.36,1.14,6,1.1,6.19A.49.49,0,0,1,322.43,420.54Z" style="fill:#263238"></path><path d="M356.83,330.55a.49.49,0,0,1-.44-.26c-4.21-7.68-23.6-12.71-23.8-12.76a.5.5,0,0,1,.25-1c.81.21,20,5.19,24.43,13.25a.51.51,0,0,1-.2.68A.53.53,0,0,1,356.83,330.55Z" style="fill:#263238"></path><path d="M398,355.92a.49.49,0,0,1-.32-.12l-4-3.36a.51.51,0,0,1,.46-.87c.13,0,1.2-.26,3.38-4.3,2.69-5,3.89-13.62,3.9-13.7a.51.51,0,0,1,.5-.44h7.31a.5.5,0,0,1,.5.5.5.5,0,0,1-.5.5h-6.88c-.28,1.85-1.49,9-3.95,13.61-1.5,2.78-2.6,4-3.38,4.53l3.26,2.77a.5.5,0,0,1-.32.88Zm-3.74-4.31h0Zm0,0Zm0,0Zm0,0Z" style="fill:#263238"></path><path d="M328.74,379.44c-5.33-6.55.93-17.44,18.08-21s54.33-.11,71.34,4.87S431.22,250.08,428.85,239s9.1-13.77,14.63-7.5,2,10.62-2.77,12.79c0,0,3.56,116-6.72,130.08s-20.37-4.53-55.09-2.72-34.11,7.83-34.11,7.83S335.82,388.12,328.74,379.44Z" style="fill:#bfbfbf"></path><path d="M336.05,383.8l-.54,0a9.88,9.88,0,0,1-7.15-4h0a8.66,8.66,0,0,1-1.39-8.67c2.17-6.11,9.55-11,19.75-13.17,17-3.55,54.17-.22,71.59,4.89a3.1,3.1,0,0,0,3.13-.87c12.16-11.28,9.36-111.42,6.92-122.88-1-4.82.44-8.76,3.94-10.52a9.85,9.85,0,0,1,11.56,2.59c2.36,2.67,3.31,5.23,2.81,7.59s-2.42,4.39-5.45,5.85c.25,8.13,3.27,116.18-6.83,130.05-5.71,7.84-11.33,6-20.65,2.87-7.91-2.62-18.73-6.22-34.81-5.38-33.06,1.72-33.64,7.26-33.64,7.31a.44.44,0,0,1-.15.38C345,380,341,383.8,336.05,383.8Zm-6.92-4.68a8.92,8.92,0,0,0,6.43,3.66c4.21.26,8-2.92,8.76-3.58a2.38,2.38,0,0,1,.59-1.11c1.75-2,8.48-5.65,34-7,16.26-.85,27.19,2.78,35.17,5.43,9.19,3.06,14.26,4.74,19.53-2.51,10.07-13.83,6.67-128.6,6.63-129.76a.5.5,0,0,1,.3-.47c1.68-.77,4.59-2.48,5.18-5.28.43-2-.44-4.3-2.58-6.73a8.83,8.83,0,0,0-10.36-2.36c-3.11,1.57-4.36,5-3.42,9.42,2.27,10.62,5.74,111.81-7.21,123.82a4,4,0,0,1-4.1,1.09c-17.31-5.07-54.25-8.38-71.1-4.86-11.6,2.43-17.42,8.06-19,12.52a7.7,7.7,0,0,0,1.21,7.7Z" style="fill:#263238"></path></g></svg>